<svg width="217" height="173" viewBox="0 0 217 173" fill="none" xmlns="http://www.w3.org/2000/svg">
<path d="M213.173 160.453C215.289 160.453 217 158.975 217 157.152C217 155.329 215.289 153.852 213.173 153.852C211.061 153.852 209.348 155.329 209.348 157.152C209.348 158.975 211.061 160.453 213.173 160.453Z" fill="#CED8D5"/>
<path fill-rule="evenodd" clip-rule="evenodd" d="M106.629 0C141.771 0 170.258 28.1092 170.258 62.7836C170.258 97.458 141.771 125.567 106.629 125.567C71.4878 125.567 43 97.458 43 62.7836C43 28.1092 71.4878 0 106.629 0ZM104.329 4.69805C97.0707 5.70605 90.1587 11.4614 84.7929 21.0871C83.2365 23.8792 81.8322 26.9638 80.6084 30.2946C87.9043 28.4853 95.9186 27.4189 104.329 27.254V4.69805ZM75.2307 31.8025C76.7526 27.0898 78.6141 22.754 80.7627 18.8999C83.4225 14.1281 86.5792 10.0076 90.1355 6.84269C70.7958 12.3848 55.5516 27.4263 49.9349 46.5092C53.1423 42.9998 57.3185 39.8852 62.1545 37.2608C66.0605 35.141 70.4547 33.3038 75.2307 31.8025ZM73.7024 37.1084C71.8692 44.3074 70.7883 52.2153 70.6211 60.5142H47.7613C48.7829 53.3515 54.6158 46.5316 64.3712 41.2377C67.2009 39.7018 70.3271 38.3161 73.7024 37.1084ZM75.222 60.5142C75.4119 51.4574 76.733 42.9546 78.9193 35.442C86.5333 33.2848 95.1511 31.9808 104.329 31.7933V41.5968C100.905 50.2461 93.9212 57.137 85.1547 60.5142H75.222ZM70.6211 65.053H47.7613C48.7829 72.2156 54.6158 79.0353 64.3712 84.3295C67.2009 85.8653 70.3271 87.2508 73.7024 88.4587C71.8692 81.2598 70.7883 73.3519 70.6211 65.053ZM78.9193 90.1254C76.733 82.6126 75.4119 74.1097 75.222 65.053H85.1547C93.9212 68.4302 100.906 75.321 104.329 83.9707V93.7741C95.1511 93.5866 86.5333 92.2821 78.9193 90.1254ZM75.2307 93.7649C70.4547 92.2634 66.0605 90.4262 62.1545 88.3066C57.3185 85.6823 53.1423 82.5671 49.9349 79.0579C55.5516 98.1408 70.7958 113.182 90.1355 118.724C86.5792 115.559 83.4225 111.439 80.7627 106.667C78.6141 102.813 76.7526 98.4776 75.2307 93.7649ZM104.329 120.869C97.0707 119.861 90.1587 114.106 84.7929 104.48C83.2365 101.688 81.8322 98.6032 80.6084 95.2726C87.9043 97.0818 95.9186 98.148 104.329 98.3132V120.869ZM123.123 118.724C126.679 115.559 129.836 111.439 132.496 106.667C134.644 102.813 136.506 98.4776 138.028 93.7649C142.804 92.2634 147.198 90.4262 151.104 88.3066C155.94 85.6823 160.117 82.5671 163.324 79.0579C157.707 98.1408 142.463 113.182 123.123 118.724ZM132.65 95.2726C131.426 98.6032 130.022 101.688 128.466 104.48C123.101 114.106 116.188 119.861 108.929 120.869V98.3132C117.34 98.148 125.354 97.0818 132.65 95.2726ZM139.556 88.4587C142.931 87.2508 146.058 85.8653 148.888 84.3295C158.643 79.0353 164.476 72.2156 165.497 65.053H142.638C142.47 73.3519 141.39 81.2598 139.556 88.4587ZM138.037 65.053C137.847 74.1097 136.525 82.6126 134.339 90.1254C126.725 92.2821 118.108 93.5866 108.929 93.7741V83.9779C112.352 75.325 119.338 68.4313 128.107 65.053H138.037ZM142.638 60.5142H165.497C164.476 53.3515 158.643 46.5316 148.888 41.2377C146.058 39.7018 142.931 38.3161 139.556 37.1084C141.39 44.3074 142.47 52.2153 142.638 60.5142ZM134.339 35.442C136.525 42.9546 137.847 51.4574 138.037 60.5142H128.107C119.338 57.1359 112.352 50.2422 108.929 41.5895V31.7933C118.108 31.9808 126.725 33.2848 134.339 35.442ZM138.028 31.8025C142.804 33.3038 147.198 35.141 151.104 37.2608C155.94 39.8852 160.117 42.9998 163.324 46.5092C157.707 27.4263 142.463 12.3848 123.123 6.84269C126.679 10.0076 129.836 14.1281 132.496 18.8999C134.644 22.754 136.506 27.0898 138.028 31.8025ZM108.929 4.69805C116.188 5.70605 123.101 11.4614 128.466 21.0871C130.022 23.8792 131.426 26.9638 132.65 30.2946C125.354 28.4853 117.34 27.4189 108.929 27.254V4.69805Z" fill="#CED8D5"/>
<path d="M11.7492 173C10.0472 173 8.47869 172.77 7.04335 172.31C5.62853 171.833 4.38793 171.161 3.32176 170.294C2.276 169.428 1.45594 168.411 0.861177 167.244C0.287127 166.077 0 164.795 0 163.398C0 162.001 0.287127 160.719 0.861177 159.552C1.45594 158.385 2.28636 157.368 3.35253 156.501C4.41869 155.635 5.66965 154.972 7.10488 154.512C8.54022 154.034 10.1191 153.796 11.8415 153.796C13.7484 153.796 15.4605 154.07 16.9779 154.618C18.5158 155.166 19.8075 155.962 20.8533 157.005L17.6546 159.552C16.8753 158.844 16.0244 158.323 15.1017 157.987C14.179 157.633 13.1744 157.456 12.0876 157.456C11.0418 157.456 10.0883 157.598 9.22717 157.881C8.36599 158.164 7.6174 158.57 6.98183 159.101C6.36676 159.631 5.88489 160.259 5.53624 160.984C5.2083 161.709 5.04412 162.514 5.04412 163.398C5.04412 164.264 5.2083 165.06 5.53624 165.785C5.88489 166.51 6.36676 167.147 6.98183 167.695C7.6174 168.226 8.35563 168.632 9.1964 168.915C10.0576 169.198 11.0007 169.34 12.026 169.34C13.0103 169.34 13.9638 169.207 14.8865 168.942C15.8296 168.659 16.7421 168.19 17.6238 167.536L20.4535 170.639C19.2848 171.4 17.9211 171.983 16.3628 172.39C14.8249 172.797 13.2871 173 11.7492 173ZM15.9015 170.082V163.106H20.4535V170.639L15.9015 170.082ZM23.5133 172.682V153H28.3113V172.682H23.5133ZM39.408 172.894C37.6445 172.894 36.076 172.576 34.7021 171.939C33.3489 171.302 32.2723 170.436 31.4727 169.34C30.6934 168.226 30.3039 166.961 30.3039 165.546C30.3039 164.114 30.6934 162.85 31.4727 161.753C32.2723 160.639 33.3489 159.773 34.7021 159.154C36.076 158.517 37.6445 158.199 39.408 158.199C41.1508 158.199 42.7093 158.517 44.0832 159.154C45.4572 159.773 46.5328 160.63 47.3124 161.727C48.092 162.823 48.4812 164.096 48.4812 165.546C48.4812 166.961 48.092 168.226 47.3124 169.34C46.5328 170.436 45.4572 171.302 44.0832 171.939C42.7093 172.576 41.1508 172.894 39.408 172.894ZM39.408 169.499C40.2077 169.499 40.9254 169.34 41.561 169.021C42.1966 168.703 42.699 168.252 43.0681 167.668C43.4372 167.067 43.6217 166.36 43.6217 165.546C43.6217 164.715 43.4372 164.008 43.0681 163.424C42.699 162.841 42.1966 162.39 41.561 162.072C40.9254 161.753 40.2077 161.594 39.408 161.594C38.6083 161.594 37.8906 161.753 37.255 162.072C36.6195 162.39 36.1067 162.841 35.7171 163.424C35.3481 164.008 35.1635 164.715 35.1635 165.546C35.1635 166.36 35.3481 167.067 35.7171 167.668C36.1067 168.252 36.6195 168.703 37.255 169.021C37.8906 169.34 38.6083 169.499 39.408 169.499ZM60.2395 172.894C58.7829 172.894 57.5325 172.629 56.4871 172.098C55.4407 171.568 54.6413 170.763 54.0878 169.684C53.5342 168.588 53.2569 167.209 53.2569 165.546C53.2569 163.866 53.5436 162.487 54.1181 161.408C54.7125 160.33 55.5328 159.525 56.5792 158.995C57.6246 158.464 58.8447 158.199 60.2395 158.199C61.7976 158.199 63.1914 158.5 64.4219 159.101C65.6723 159.702 66.657 160.551 67.3748 161.647C68.1125 162.744 68.4819 164.043 68.4819 165.546C68.4819 167.032 68.1125 168.323 67.3748 169.419C66.657 170.516 65.6723 171.373 64.4219 171.992C63.1914 172.593 61.7976 172.894 60.2395 172.894ZM50.4578 172.682V153H55.2566V161.302L54.949 165.52L55.041 169.764V172.682H50.4578ZM59.4087 169.499C60.2081 169.499 60.9155 169.34 61.5307 169.021C62.1669 168.703 62.6692 168.252 63.0375 167.668C63.4278 167.067 63.6225 166.36 63.6225 165.546C63.6225 164.715 63.4278 164.008 63.0375 163.424C62.6692 162.841 62.1669 162.39 61.5307 162.072C60.9155 161.753 60.2081 161.594 59.4087 161.594C58.6092 161.594 57.8914 161.753 57.2552 162.072C56.62 162.39 56.1178 162.841 55.7484 163.424C55.379 164.008 55.1949 164.715 55.1949 165.546C55.1949 166.36 55.379 167.067 55.7484 167.668C56.1178 168.252 56.62 168.703 57.2552 169.021C57.8914 169.34 58.6092 169.499 59.4087 169.499ZM80.3427 172.682V169.897L80.0351 169.286V164.3C80.0351 163.416 79.718 162.726 79.0818 162.231C78.4666 161.736 77.5133 161.488 76.222 161.488C75.3399 161.488 74.4683 161.612 73.6071 161.859C72.7669 162.089 72.049 162.408 71.4547 162.814L69.7323 159.923C70.6343 159.375 71.7205 158.951 72.9918 158.65C74.2632 158.349 75.5555 158.199 76.8677 158.199C79.3895 158.199 81.3483 158.712 82.7421 159.737C84.1369 160.763 84.8338 162.363 84.8338 164.539V172.682H80.3427ZM75.2991 172.894C74.0068 172.894 72.8998 172.708 71.9768 172.337C71.055 171.948 70.3476 171.426 69.8548 170.772C69.363 170.118 69.1171 169.384 69.1171 168.57C69.1171 167.721 69.3525 166.979 69.8244 166.342C70.3162 165.706 71.0853 165.211 72.1307 164.857C73.1771 164.485 74.5405 164.3 76.222 164.3H80.62V166.714H76.7442C75.6162 166.714 74.8377 166.873 74.4066 167.191C73.9964 167.509 73.7923 167.907 73.7923 168.385C73.7923 168.915 74.0278 169.34 74.4997 169.658C74.9915 169.958 75.6581 170.109 76.4983 170.109C77.2977 170.109 78.0156 169.95 78.6518 169.631C79.2869 169.295 79.7484 168.809 80.0351 168.172L80.7738 170.082C80.4254 171.002 79.7892 171.7 78.8673 172.178C77.9444 172.655 76.7547 172.894 75.2991 172.894ZM87.9458 172.682V153H92.7435V172.682H87.9458ZM96.3054 172.682V154.114H100.426L113.129 167.483H111.13V154.114H116.051V172.682H111.96L99.2269 159.313H101.227V172.682H96.3054ZM127.45 172.894C125.686 172.894 124.117 172.576 122.745 171.939C121.392 171.302 120.315 170.436 119.515 169.34C118.735 168.226 118.347 166.961 118.347 165.546C118.347 164.114 118.735 162.85 119.515 161.753C120.315 160.639 121.392 159.773 122.745 159.154C124.117 158.517 125.686 158.199 127.45 158.199C129.192 158.199 130.753 158.517 132.125 159.154C133.498 159.773 134.575 160.63 135.355 161.727C136.134 162.823 136.523 164.096 136.523 165.546C136.523 166.961 136.134 168.226 135.355 169.34C134.575 170.436 133.498 171.302 132.125 171.939C130.753 172.576 129.192 172.894 127.45 172.894ZM127.45 169.499C128.25 169.499 128.968 169.34 129.604 169.021C130.238 168.703 130.741 168.252 131.11 167.668C131.48 167.067 131.664 166.36 131.664 165.546C131.664 164.715 131.48 164.008 131.11 163.424C130.741 162.841 130.238 162.39 129.604 162.072C128.968 161.753 128.25 161.594 127.45 161.594C126.651 161.594 125.932 161.753 125.297 162.072C124.663 162.39 124.149 162.841 123.76 163.424C123.39 164.008 123.206 164.715 123.206 165.546C123.206 166.36 123.39 167.067 123.76 167.668C124.149 168.252 124.663 168.703 125.297 169.021C125.932 169.34 126.651 169.499 127.45 169.499ZM159.693 158.199C161.005 158.199 162.162 158.429 163.169 158.889C164.192 159.331 164.991 160.02 165.567 160.958C166.16 161.877 166.46 163.062 166.46 164.512V172.682H161.661V165.149C161.661 163.999 161.385 163.15 160.831 162.602C160.277 162.054 159.497 161.78 158.493 161.78C157.794 161.78 157.171 161.921 156.617 162.204C156.064 162.47 155.633 162.876 155.325 163.424C155.017 163.973 154.863 164.671 154.863 165.52V172.682H150.066V165.149C150.066 163.999 149.788 163.15 149.235 162.602C148.701 162.054 147.932 161.78 146.929 161.78C146.23 161.78 145.606 161.921 145.053 162.204C144.499 162.47 144.068 162.876 143.76 163.424C143.453 163.973 143.299 164.671 143.299 165.52V172.682H138.501V158.411H143.084V162.31L142.223 161.17C142.796 160.197 143.606 159.463 144.653 158.968C145.718 158.455 146.929 158.199 148.282 158.199C149.798 158.199 151.121 158.535 152.25 159.207C153.396 159.861 154.156 160.869 154.525 162.231L152.833 161.833C153.387 160.719 154.269 159.835 155.479 159.18C156.709 158.526 158.114 158.199 159.693 158.199ZM179.68 172.682V169.897L179.372 169.286V164.3C179.372 163.416 179.054 162.726 178.419 162.231C177.803 161.736 176.85 161.488 175.558 161.488C174.675 161.488 173.805 161.612 172.944 161.859C172.103 162.089 171.384 162.408 170.791 162.814L169.068 159.923C169.969 159.375 171.056 158.951 172.329 158.65C173.598 158.349 174.89 158.199 176.204 158.199C178.726 158.199 180.683 158.712 182.078 159.737C183.472 160.763 184.17 162.363 184.17 164.539V172.682H179.68ZM174.635 172.894C173.344 172.894 172.237 172.708 171.314 172.337C170.391 171.948 169.683 171.426 169.192 170.772C168.699 170.118 168.453 169.384 168.453 168.57C168.453 167.721 168.688 166.979 169.16 166.342C169.652 165.706 170.421 165.211 171.468 164.857C172.513 164.485 173.875 164.3 175.558 164.3H179.956V166.714H176.081C174.952 166.714 174.174 166.873 173.743 167.191C173.332 167.509 173.128 167.907 173.128 168.385C173.128 168.915 173.364 169.34 173.836 169.658C174.327 169.958 174.994 170.109 175.835 170.109C176.635 170.109 177.35 169.95 177.988 169.631C178.623 169.295 179.084 168.809 179.372 168.172L180.11 170.082C179.761 171.002 179.126 171.7 178.203 172.178C177.28 172.655 176.089 172.894 174.635 172.894ZM194.506 172.894C192.948 172.894 191.545 172.593 190.292 171.992C189.043 171.373 188.048 170.516 187.309 169.419C186.592 168.323 186.232 167.032 186.232 165.546C186.232 164.043 186.592 162.744 187.309 161.647C188.048 160.551 189.043 159.702 190.292 159.101C191.545 158.5 192.948 158.199 194.506 158.199C195.901 158.199 197.121 158.464 198.166 158.995C199.212 159.525 200.022 160.33 200.596 161.408C201.171 162.487 201.457 163.866 201.457 165.546C201.457 167.209 201.181 168.588 200.626 169.684C200.073 170.763 199.273 171.568 198.228 172.098C197.204 172.629 195.963 172.894 194.506 172.894ZM195.337 169.499C196.116 169.499 196.824 169.34 197.459 169.021C198.096 168.703 198.597 168.252 198.966 167.668C199.357 167.067 199.551 166.36 199.551 165.546C199.551 164.715 199.357 164.008 198.966 163.424C198.597 162.841 198.096 162.39 197.459 162.072C196.824 161.753 196.116 161.594 195.337 161.594C194.537 161.594 193.821 161.753 193.183 162.072C192.548 162.39 192.036 162.841 191.646 163.424C191.277 164.008 191.093 164.715 191.093 165.546C191.093 166.36 191.277 167.067 191.646 167.668C192.036 168.252 192.548 168.703 193.183 169.021C193.821 169.34 194.537 169.499 195.337 169.499ZM199.673 172.682V169.764L199.765 165.52L199.458 161.302V153H204.256V172.682H199.673Z" fill="#CED8D5"/>
</svg>
