<svg width="170" height="30" viewBox="0 0 170 30" fill="none" xmlns="http://www.w3.org/2000/svg">
<mask id="path-1-outside-1_10222_11503" maskUnits="userSpaceOnUse" x="35.2139" y="7.12305" width="132" height="16" fill="black">
<rect fill="white" x="35.2139" y="7.12305" width="132" height="16"/>
<path d="M164.115 13.4522C165.385 13.4522 166.411 12.3958 166.411 11.0928C166.411 9.78977 165.385 8.73353 164.115 8.73353C162.848 8.73353 161.82 9.78977 161.82 11.0928C161.82 12.3958 162.848 13.4522 164.115 13.4522Z"/>
<path d="M43.2632 22.42C42.2421 22.42 41.301 22.2558 40.4398 21.927C39.5909 21.5857 38.8466 21.1054 38.2069 20.486C37.5794 19.8666 37.0874 19.1397 36.7306 18.3054C36.3861 17.4711 36.2139 16.5546 36.2139 15.556C36.2139 14.5574 36.3861 13.6408 36.7306 12.8065C37.0874 11.9722 37.5857 11.2454 38.2253 10.626C38.865 10.0066 39.6156 9.53258 40.4767 9.20384C41.3379 8.86255 42.2852 8.6919 43.3186 8.6919C44.4627 8.6919 45.49 8.88787 46.4004 9.2797C47.3231 9.67158 48.0981 10.2404 48.7256 10.9862L46.8064 12.8065C46.3388 12.301 45.8283 11.928 45.2747 11.6879C44.7211 11.435 44.1183 11.3086 43.4662 11.3086C42.8388 11.3086 42.2667 11.4097 41.75 11.612C41.2333 11.8142 40.7842 12.105 40.4029 12.4842C40.0338 12.8635 39.7447 13.3122 39.5355 13.8305C39.3388 14.3488 39.2403 14.9239 39.2403 15.556C39.2403 16.1754 39.3388 16.7442 39.5355 17.2626C39.7447 17.7808 40.0338 18.2359 40.4029 18.6277C40.7842 19.007 41.2271 19.2978 41.7316 19.5C42.2483 19.7022 42.8141 19.8034 43.4293 19.8034C44.0199 19.8034 44.5919 19.7085 45.1455 19.519C45.7114 19.3167 46.2589 18.9817 46.7879 18.514L48.4857 20.7325C47.7845 21.276 46.9663 21.6932 46.0313 21.984C45.1086 22.2747 44.1859 22.42 43.2632 22.42ZM45.7545 20.3343V15.3474H48.4857V20.7325L45.7545 20.3343ZM50.3215 22.1926V8.12305H53.2003V22.1926H50.3215ZM59.8581 22.3442C58.8001 22.3442 57.8589 22.1167 57.0347 21.6616C56.2227 21.2066 55.5768 20.5872 55.097 19.8034C54.6295 19.007 54.3958 18.1032 54.3958 17.0919C54.3958 16.068 54.6295 15.1642 55.097 14.3804C55.5768 13.584 56.2227 12.9646 57.0347 12.5222C57.8589 12.067 58.8001 11.8396 59.8581 11.8396C60.9038 11.8396 61.8389 12.067 62.6632 12.5222C63.4875 12.9646 64.1329 13.5776 64.6007 14.3614C65.0684 15.1452 65.3019 16.0553 65.3019 17.0919C65.3019 18.1032 65.0684 19.007 64.6007 19.8034C64.1329 20.5872 63.4875 21.2066 62.6632 21.6616C61.8389 22.1167 60.9038 22.3442 59.8581 22.3442ZM59.8581 19.9172C60.338 19.9172 60.7686 19.8033 61.1499 19.5759C61.5313 19.3483 61.8327 19.026 62.0542 18.6088C62.2756 18.179 62.3863 17.6733 62.3863 17.0919C62.3863 16.4977 62.2756 15.9921 62.0542 15.575C61.8327 15.1578 61.5313 14.8355 61.1499 14.6079C60.7686 14.3803 60.338 14.2666 59.8581 14.2666C59.3783 14.2666 58.9477 14.3803 58.5664 14.6079C58.185 14.8355 57.8774 15.1578 57.6437 15.575C57.4222 15.9921 57.3115 16.4977 57.3115 17.0919C57.3115 17.6733 57.4222 18.179 57.6437 18.6088C57.8774 19.026 58.185 19.3483 58.5664 19.5759C58.9477 19.8033 59.3783 19.9172 59.8581 19.9172ZM72.3567 22.3442C71.4828 22.3442 70.7326 22.1546 70.1054 21.7753C69.4776 21.3962 68.9979 20.8209 68.6658 20.0499C68.3337 19.2661 68.1673 18.2801 68.1673 17.0919C68.1673 15.8909 68.3393 14.9049 68.684 14.1338C69.0406 13.3628 69.5328 12.7876 70.1606 12.4083C70.7878 12.0292 71.5199 11.8396 72.3567 11.8396C73.2916 11.8396 74.1278 12.0544 74.8661 12.4842C75.6164 12.914 76.2072 13.5207 76.6378 14.3046C77.0805 15.0883 77.3021 16.0174 77.3021 17.0919C77.3021 18.1537 77.0805 19.0765 76.6378 19.8602C76.2072 20.644 75.6164 21.2571 74.8661 21.6996C74.1278 22.1293 73.2916 22.3442 72.3567 22.3442ZM66.4879 22.1926V8.12305H69.3671V14.0581L69.1825 17.0729L69.2377 20.1067V22.1926H66.4879ZM71.8583 19.9172C72.3379 19.9172 72.7623 19.8033 73.1315 19.5759C73.5132 19.3483 73.8145 19.026 74.0355 18.6088C74.2697 18.179 74.3865 17.6733 74.3865 17.0919C74.3865 16.4977 74.2697 15.9921 74.0355 15.575C73.8145 15.1578 73.5132 14.8355 73.1315 14.6079C72.7623 14.3803 72.3379 14.2666 71.8583 14.2666C71.3786 14.2666 70.9479 14.3803 70.5662 14.6079C70.1851 14.8355 69.8838 15.1578 69.6621 15.575C69.4405 15.9921 69.33 16.4977 69.33 17.0919C69.33 17.6733 69.4405 18.179 69.6621 18.6088C69.8838 19.026 70.1851 19.3483 70.5662 19.5759C70.9479 19.8033 71.3786 19.9172 71.8583 19.9172ZM84.4184 22.1926V20.2015L84.2338 19.7655V16.2007C84.2338 15.5686 84.0436 15.0756 83.6619 14.7217C83.2927 14.3678 82.7208 14.1907 81.9461 14.1907C81.4168 14.1907 80.8938 14.2792 80.3771 14.4562C79.873 14.6205 79.4423 14.8481 79.0857 15.1389L78.0523 13.0721C78.5935 12.6802 79.2452 12.3768 80.008 12.1618C80.7708 11.947 81.5461 11.8396 82.3334 11.8396C83.8465 11.8396 85.0217 12.2062 85.858 12.9393C86.6949 13.6724 87.113 14.8165 87.113 16.3714V22.1926H84.4184ZM81.3923 22.3442C80.617 22.3442 79.9527 22.2115 79.399 21.9461C78.8459 21.668 78.4215 21.295 78.1258 20.8273C77.8307 20.3596 77.6832 19.8349 77.6832 19.2535C77.6832 18.6467 77.8244 18.1158 78.1076 17.6607C78.4026 17.2057 78.8641 16.8517 79.4913 16.5988C80.1191 16.3334 80.9372 16.2007 81.9461 16.2007H84.5848V17.9262H82.2593C81.5826 17.9262 81.1155 18.04 80.8568 18.2675C80.6107 18.4951 80.4883 18.7794 80.4883 19.1207C80.4883 19.5 80.6295 19.8034 80.9127 20.0309C81.2077 20.2458 81.6077 20.3532 82.1118 20.3532C82.5915 20.3532 83.0221 20.2395 83.4039 20.012C83.7849 19.7718 84.0618 19.4242 84.2338 18.969L84.6771 20.3343C84.468 20.9916 84.0863 21.4909 83.5332 21.8322C82.9795 22.1735 82.2656 22.3442 81.3923 22.3442ZM88.9802 22.1926V8.12305H91.8587V22.1926H88.9802ZM93.9958 22.1926V8.91945H96.4682L104.09 18.476H102.89V8.91945H105.843V22.1926H103.389L95.7487 12.6359H96.9484V22.1926H93.9958ZM112.682 22.3442C111.624 22.3442 110.683 22.1167 109.859 21.6616C109.047 21.2066 108.401 20.5872 107.921 19.8034C107.453 19.007 107.22 18.1032 107.22 17.0919C107.22 16.068 107.453 15.1642 107.921 14.3804C108.401 13.584 109.047 12.9646 109.859 12.5222C110.683 12.067 111.624 11.8396 112.682 11.8396C113.728 11.8396 114.664 12.067 115.487 12.5222C116.311 12.9646 116.957 13.5776 117.425 14.3614C117.892 15.1452 118.126 16.0553 118.126 17.0919C118.126 18.1032 117.892 19.007 117.425 19.8034C116.957 20.5872 116.311 21.2066 115.487 21.6616C114.664 22.1167 113.728 22.3442 112.682 22.3442ZM112.682 19.9172C113.162 19.9172 113.593 19.8033 113.974 19.5759C114.355 19.3483 114.657 19.026 114.878 18.6088C115.1 18.179 115.21 17.6733 115.21 17.0919C115.21 16.4977 115.1 15.9921 114.878 15.575C114.657 15.1578 114.355 14.8355 113.974 14.6079C113.593 14.3803 113.162 14.2666 112.682 14.2666C112.203 14.2666 111.771 14.3803 111.39 14.6079C111.01 14.8355 110.701 15.1578 110.468 15.575C110.246 15.9921 110.136 16.4977 110.136 17.0919C110.136 17.6733 110.246 18.179 110.468 18.6088C110.701 19.026 111.01 19.3483 111.39 19.5759C111.771 19.8033 112.203 19.9172 112.682 19.9172ZM132.027 11.8396C132.815 11.8396 133.509 12.0039 134.113 12.3326C134.727 12.6485 135.207 13.1415 135.552 13.8116C135.908 14.4688 136.087 15.3158 136.087 16.3523V22.1926H133.208V16.8075C133.208 15.9857 133.042 15.379 132.71 14.9872C132.378 14.5953 131.91 14.3994 131.308 14.3994C130.888 14.3994 130.514 14.5005 130.182 14.7027C129.85 14.8924 129.591 15.1831 129.407 15.575C129.222 15.9668 129.13 16.4662 129.13 17.0729V22.1926H126.251V16.8075C126.251 15.9857 126.085 15.379 125.753 14.9872C125.433 14.5953 124.971 14.3994 124.369 14.3994C123.95 14.3994 123.576 14.5005 123.243 14.7027C122.911 14.8924 122.653 15.1831 122.468 15.575C122.283 15.9668 122.191 16.4662 122.191 17.0729V22.1926H119.313V11.9912H122.062V14.7785L121.546 13.9632C121.89 13.268 122.376 12.7433 123.004 12.3894C123.643 12.0228 124.369 11.8396 125.181 11.8396C126.091 11.8396 126.884 12.0797 127.562 12.56C128.25 13.0277 128.705 13.7483 128.927 14.7217L127.912 14.4372C128.244 13.6408 128.773 13.0088 129.499 12.5411C130.237 12.0734 131.08 11.8396 132.027 11.8396ZM144.019 22.1926V20.2015L143.835 19.7655V16.2007C143.835 15.5686 143.644 15.0756 143.263 14.7217C142.894 14.3678 142.322 14.1907 141.546 14.1907C141.016 14.1907 140.495 14.2792 139.978 14.4562C139.473 14.6205 139.042 14.8481 138.686 15.1389L137.652 13.0721C138.193 12.6802 138.845 12.3768 139.609 12.1618C140.37 11.947 141.146 11.8396 141.934 11.8396C143.447 11.8396 144.621 12.2062 145.458 12.9393C146.294 13.6724 146.713 14.8165 146.713 16.3714V22.1926H144.019ZM140.992 22.3442C140.218 22.3442 139.554 22.2115 139 21.9461C138.446 21.668 138.022 21.295 137.727 20.8273C137.431 20.3596 137.283 19.8349 137.283 19.2535C137.283 18.6467 137.425 18.1158 137.708 17.6607C138.003 17.2057 138.464 16.8517 139.092 16.5988C139.719 16.3334 140.537 16.2007 141.546 16.2007H144.185V17.9262H141.86C141.183 17.9262 140.716 18.04 140.458 18.2675C140.211 18.4951 140.088 18.7794 140.088 19.1207C140.088 19.5 140.23 19.8034 140.513 20.0309C140.808 20.2458 141.208 20.3532 141.713 20.3532C142.192 20.3532 142.622 20.2395 143.004 20.012C143.385 19.7718 143.662 19.4242 143.835 18.969L144.277 20.3343C144.068 20.9916 143.687 21.4909 143.133 21.8322C142.58 22.1735 141.865 22.3442 140.992 22.3442ZM152.915 22.3442C151.98 22.3442 151.138 22.1293 150.387 21.6996C149.637 21.2571 149.04 20.644 148.597 19.8602C148.167 19.0765 147.951 18.1537 147.951 17.0919C147.951 16.0174 148.167 15.0883 148.597 14.3046C149.04 13.5207 149.637 12.914 150.387 12.4842C151.138 12.0544 151.98 11.8396 152.915 11.8396C153.752 11.8396 154.484 12.0292 155.111 12.4083C155.738 12.7876 156.225 13.3628 156.569 14.1338C156.914 14.9049 157.085 15.8909 157.085 17.0919C157.085 18.2801 156.92 19.2661 156.587 20.0499C156.255 20.8209 155.775 21.3962 155.148 21.7753C154.533 22.1546 153.789 22.3442 152.915 22.3442ZM153.413 19.9172C153.881 19.9172 154.305 19.8033 154.686 19.5759C155.069 19.3483 155.37 19.026 155.591 18.6088C155.825 18.179 155.942 17.6733 155.942 17.0919C155.942 16.4977 155.825 15.9921 155.591 15.575C155.37 15.1578 155.069 14.8355 154.686 14.6079C154.305 14.3803 153.881 14.2666 153.413 14.2666C152.934 14.2666 152.504 14.3803 152.121 14.6079C151.74 14.8355 151.433 15.1578 151.199 15.575C150.977 15.9921 150.867 16.4977 150.867 17.0919C150.867 17.6733 150.977 18.179 151.199 18.6088C151.433 19.026 151.74 19.3483 152.121 19.5759C152.504 19.8033 152.934 19.9172 153.413 19.9172ZM156.015 22.1926V20.1067L156.07 17.0729L155.886 14.0581V8.12305H158.765V22.1926H156.015Z"/>
</mask>
<path d="M164.115 13.4522C165.385 13.4522 166.411 12.3958 166.411 11.0928C166.411 9.78977 165.385 8.73353 164.115 8.73353C162.848 8.73353 161.82 9.78977 161.82 11.0928C161.82 12.3958 162.848 13.4522 164.115 13.4522Z" fill="#0B3B2D"/>
<path d="M43.2632 22.42C42.2421 22.42 41.301 22.2558 40.4398 21.927C39.5909 21.5857 38.8466 21.1054 38.2069 20.486C37.5794 19.8666 37.0874 19.1397 36.7306 18.3054C36.3861 17.4711 36.2139 16.5546 36.2139 15.556C36.2139 14.5574 36.3861 13.6408 36.7306 12.8065C37.0874 11.9722 37.5857 11.2454 38.2253 10.626C38.865 10.0066 39.6156 9.53258 40.4767 9.20384C41.3379 8.86255 42.2852 8.6919 43.3186 8.6919C44.4627 8.6919 45.49 8.88787 46.4004 9.2797C47.3231 9.67158 48.0981 10.2404 48.7256 10.9862L46.8064 12.8065C46.3388 12.301 45.8283 11.928 45.2747 11.6879C44.7211 11.435 44.1183 11.3086 43.4662 11.3086C42.8388 11.3086 42.2667 11.4097 41.75 11.612C41.2333 11.8142 40.7842 12.105 40.4029 12.4842C40.0338 12.8635 39.7447 13.3122 39.5355 13.8305C39.3388 14.3488 39.2403 14.9239 39.2403 15.556C39.2403 16.1754 39.3388 16.7442 39.5355 17.2626C39.7447 17.7808 40.0338 18.2359 40.4029 18.6277C40.7842 19.007 41.2271 19.2978 41.7316 19.5C42.2483 19.7022 42.8141 19.8034 43.4293 19.8034C44.0199 19.8034 44.5919 19.7085 45.1455 19.519C45.7114 19.3167 46.2589 18.9817 46.7879 18.514L48.4857 20.7325C47.7845 21.276 46.9663 21.6932 46.0313 21.984C45.1086 22.2747 44.1859 22.42 43.2632 22.42ZM45.7545 20.3343V15.3474H48.4857V20.7325L45.7545 20.3343ZM50.3215 22.1926V8.12305H53.2003V22.1926H50.3215ZM59.8581 22.3442C58.8001 22.3442 57.8589 22.1167 57.0347 21.6616C56.2227 21.2066 55.5768 20.5872 55.097 19.8034C54.6295 19.007 54.3958 18.1032 54.3958 17.0919C54.3958 16.068 54.6295 15.1642 55.097 14.3804C55.5768 13.584 56.2227 12.9646 57.0347 12.5222C57.8589 12.067 58.8001 11.8396 59.8581 11.8396C60.9038 11.8396 61.8389 12.067 62.6632 12.5222C63.4875 12.9646 64.1329 13.5776 64.6007 14.3614C65.0684 15.1452 65.3019 16.0553 65.3019 17.0919C65.3019 18.1032 65.0684 19.007 64.6007 19.8034C64.1329 20.5872 63.4875 21.2066 62.6632 21.6616C61.8389 22.1167 60.9038 22.3442 59.8581 22.3442ZM59.8581 19.9172C60.338 19.9172 60.7686 19.8033 61.1499 19.5759C61.5313 19.3483 61.8327 19.026 62.0542 18.6088C62.2756 18.179 62.3863 17.6733 62.3863 17.0919C62.3863 16.4977 62.2756 15.9921 62.0542 15.575C61.8327 15.1578 61.5313 14.8355 61.1499 14.6079C60.7686 14.3803 60.338 14.2666 59.8581 14.2666C59.3783 14.2666 58.9477 14.3803 58.5664 14.6079C58.185 14.8355 57.8774 15.1578 57.6437 15.575C57.4222 15.9921 57.3115 16.4977 57.3115 17.0919C57.3115 17.6733 57.4222 18.179 57.6437 18.6088C57.8774 19.026 58.185 19.3483 58.5664 19.5759C58.9477 19.8033 59.3783 19.9172 59.8581 19.9172ZM72.3567 22.3442C71.4828 22.3442 70.7326 22.1546 70.1054 21.7753C69.4776 21.3962 68.9979 20.8209 68.6658 20.0499C68.3337 19.2661 68.1673 18.2801 68.1673 17.0919C68.1673 15.8909 68.3393 14.9049 68.684 14.1338C69.0406 13.3628 69.5328 12.7876 70.1606 12.4083C70.7878 12.0292 71.5199 11.8396 72.3567 11.8396C73.2916 11.8396 74.1278 12.0544 74.8661 12.4842C75.6164 12.914 76.2072 13.5207 76.6378 14.3046C77.0805 15.0883 77.3021 16.0174 77.3021 17.0919C77.3021 18.1537 77.0805 19.0765 76.6378 19.8602C76.2072 20.644 75.6164 21.2571 74.8661 21.6996C74.1278 22.1293 73.2916 22.3442 72.3567 22.3442ZM66.4879 22.1926V8.12305H69.3671V14.0581L69.1825 17.0729L69.2377 20.1067V22.1926H66.4879ZM71.8583 19.9172C72.3379 19.9172 72.7623 19.8033 73.1315 19.5759C73.5132 19.3483 73.8145 19.026 74.0355 18.6088C74.2697 18.179 74.3865 17.6733 74.3865 17.0919C74.3865 16.4977 74.2697 15.9921 74.0355 15.575C73.8145 15.1578 73.5132 14.8355 73.1315 14.6079C72.7623 14.3803 72.3379 14.2666 71.8583 14.2666C71.3786 14.2666 70.9479 14.3803 70.5662 14.6079C70.1851 14.8355 69.8838 15.1578 69.6621 15.575C69.4405 15.9921 69.33 16.4977 69.33 17.0919C69.33 17.6733 69.4405 18.179 69.6621 18.6088C69.8838 19.026 70.1851 19.3483 70.5662 19.5759C70.9479 19.8033 71.3786 19.9172 71.8583 19.9172ZM84.4184 22.1926V20.2015L84.2338 19.7655V16.2007C84.2338 15.5686 84.0436 15.0756 83.6619 14.7217C83.2927 14.3678 82.7208 14.1907 81.9461 14.1907C81.4168 14.1907 80.8938 14.2792 80.3771 14.4562C79.873 14.6205 79.4423 14.8481 79.0857 15.1389L78.0523 13.0721C78.5935 12.6802 79.2452 12.3768 80.008 12.1618C80.7708 11.947 81.5461 11.8396 82.3334 11.8396C83.8465 11.8396 85.0217 12.2062 85.858 12.9393C86.6949 13.6724 87.113 14.8165 87.113 16.3714V22.1926H84.4184ZM81.3923 22.3442C80.617 22.3442 79.9527 22.2115 79.399 21.9461C78.8459 21.668 78.4215 21.295 78.1258 20.8273C77.8307 20.3596 77.6832 19.8349 77.6832 19.2535C77.6832 18.6467 77.8244 18.1158 78.1076 17.6607C78.4026 17.2057 78.8641 16.8517 79.4913 16.5988C80.1191 16.3334 80.9372 16.2007 81.9461 16.2007H84.5848V17.9262H82.2593C81.5826 17.9262 81.1155 18.04 80.8568 18.2675C80.6107 18.4951 80.4883 18.7794 80.4883 19.1207C80.4883 19.5 80.6295 19.8034 80.9127 20.0309C81.2077 20.2458 81.6077 20.3532 82.1118 20.3532C82.5915 20.3532 83.0221 20.2395 83.4039 20.012C83.7849 19.7718 84.0618 19.4242 84.2338 18.969L84.6771 20.3343C84.468 20.9916 84.0863 21.4909 83.5332 21.8322C82.9795 22.1735 82.2656 22.3442 81.3923 22.3442ZM88.9802 22.1926V8.12305H91.8587V22.1926H88.9802ZM93.9958 22.1926V8.91945H96.4682L104.09 18.476H102.89V8.91945H105.843V22.1926H103.389L95.7487 12.6359H96.9484V22.1926H93.9958ZM112.682 22.3442C111.624 22.3442 110.683 22.1167 109.859 21.6616C109.047 21.2066 108.401 20.5872 107.921 19.8034C107.453 19.007 107.22 18.1032 107.22 17.0919C107.22 16.068 107.453 15.1642 107.921 14.3804C108.401 13.584 109.047 12.9646 109.859 12.5222C110.683 12.067 111.624 11.8396 112.682 11.8396C113.728 11.8396 114.664 12.067 115.487 12.5222C116.311 12.9646 116.957 13.5776 117.425 14.3614C117.892 15.1452 118.126 16.0553 118.126 17.0919C118.126 18.1032 117.892 19.007 117.425 19.8034C116.957 20.5872 116.311 21.2066 115.487 21.6616C114.664 22.1167 113.728 22.3442 112.682 22.3442ZM112.682 19.9172C113.162 19.9172 113.593 19.8033 113.974 19.5759C114.355 19.3483 114.657 19.026 114.878 18.6088C115.1 18.179 115.21 17.6733 115.21 17.0919C115.21 16.4977 115.1 15.9921 114.878 15.575C114.657 15.1578 114.355 14.8355 113.974 14.6079C113.593 14.3803 113.162 14.2666 112.682 14.2666C112.203 14.2666 111.771 14.3803 111.39 14.6079C111.01 14.8355 110.701 15.1578 110.468 15.575C110.246 15.9921 110.136 16.4977 110.136 17.0919C110.136 17.6733 110.246 18.179 110.468 18.6088C110.701 19.026 111.01 19.3483 111.39 19.5759C111.771 19.8033 112.203 19.9172 112.682 19.9172ZM132.027 11.8396C132.815 11.8396 133.509 12.0039 134.113 12.3326C134.727 12.6485 135.207 13.1415 135.552 13.8116C135.908 14.4688 136.087 15.3158 136.087 16.3523V22.1926H133.208V16.8075C133.208 15.9857 133.042 15.379 132.71 14.9872C132.378 14.5953 131.91 14.3994 131.308 14.3994C130.888 14.3994 130.514 14.5005 130.182 14.7027C129.85 14.8924 129.591 15.1831 129.407 15.575C129.222 15.9668 129.13 16.4662 129.13 17.0729V22.1926H126.251V16.8075C126.251 15.9857 126.085 15.379 125.753 14.9872C125.433 14.5953 124.971 14.3994 124.369 14.3994C123.95 14.3994 123.576 14.5005 123.243 14.7027C122.911 14.8924 122.653 15.1831 122.468 15.575C122.283 15.9668 122.191 16.4662 122.191 17.0729V22.1926H119.313V11.9912H122.062V14.7785L121.546 13.9632C121.89 13.268 122.376 12.7433 123.004 12.3894C123.643 12.0228 124.369 11.8396 125.181 11.8396C126.091 11.8396 126.884 12.0797 127.562 12.56C128.25 13.0277 128.705 13.7483 128.927 14.7217L127.912 14.4372C128.244 13.6408 128.773 13.0088 129.499 12.5411C130.237 12.0734 131.08 11.8396 132.027 11.8396ZM144.019 22.1926V20.2015L143.835 19.7655V16.2007C143.835 15.5686 143.644 15.0756 143.263 14.7217C142.894 14.3678 142.322 14.1907 141.546 14.1907C141.016 14.1907 140.495 14.2792 139.978 14.4562C139.473 14.6205 139.042 14.8481 138.686 15.1389L137.652 13.0721C138.193 12.6802 138.845 12.3768 139.609 12.1618C140.37 11.947 141.146 11.8396 141.934 11.8396C143.447 11.8396 144.621 12.2062 145.458 12.9393C146.294 13.6724 146.713 14.8165 146.713 16.3714V22.1926H144.019ZM140.992 22.3442C140.218 22.3442 139.554 22.2115 139 21.9461C138.446 21.668 138.022 21.295 137.727 20.8273C137.431 20.3596 137.283 19.8349 137.283 19.2535C137.283 18.6467 137.425 18.1158 137.708 17.6607C138.003 17.2057 138.464 16.8517 139.092 16.5988C139.719 16.3334 140.537 16.2007 141.546 16.2007H144.185V17.9262H141.86C141.183 17.9262 140.716 18.04 140.458 18.2675C140.211 18.4951 140.088 18.7794 140.088 19.1207C140.088 19.5 140.23 19.8034 140.513 20.0309C140.808 20.2458 141.208 20.3532 141.713 20.3532C142.192 20.3532 142.622 20.2395 143.004 20.012C143.385 19.7718 143.662 19.4242 143.835 18.969L144.277 20.3343C144.068 20.9916 143.687 21.4909 143.133 21.8322C142.58 22.1735 141.865 22.3442 140.992 22.3442ZM152.915 22.3442C151.98 22.3442 151.138 22.1293 150.387 21.6996C149.637 21.2571 149.04 20.644 148.597 19.8602C148.167 19.0765 147.951 18.1537 147.951 17.0919C147.951 16.0174 148.167 15.0883 148.597 14.3046C149.04 13.5207 149.637 12.914 150.387 12.4842C151.138 12.0544 151.98 11.8396 152.915 11.8396C153.752 11.8396 154.484 12.0292 155.111 12.4083C155.738 12.7876 156.225 13.3628 156.569 14.1338C156.914 14.9049 157.085 15.8909 157.085 17.0919C157.085 18.2801 156.92 19.2661 156.587 20.0499C156.255 20.8209 155.775 21.3962 155.148 21.7753C154.533 22.1546 153.789 22.3442 152.915 22.3442ZM153.413 19.9172C153.881 19.9172 154.305 19.8033 154.686 19.5759C155.069 19.3483 155.37 19.026 155.591 18.6088C155.825 18.179 155.942 17.6733 155.942 17.0919C155.942 16.4977 155.825 15.9921 155.591 15.575C155.37 15.1578 155.069 14.8355 154.686 14.6079C154.305 14.3803 153.881 14.2666 153.413 14.2666C152.934 14.2666 152.504 14.3803 152.121 14.6079C151.74 14.8355 151.433 15.1578 151.199 15.575C150.977 15.9921 150.867 16.4977 150.867 17.0919C150.867 17.6733 150.977 18.179 151.199 18.6088C151.433 19.026 151.74 19.3483 152.121 19.5759C152.504 19.8033 152.934 19.9172 153.413 19.9172ZM156.015 22.1926V20.1067L156.07 17.0729L155.886 14.0581V8.12305H158.765V22.1926H156.015Z" fill="#0B3B2D"/>
<path d="M40.4398 21.927L40.3279 22.2054L40.3328 22.2073L40.4398 21.927ZM38.2069 20.486L37.9961 20.6995L37.9982 20.7015L38.2069 20.486ZM36.7306 18.3054L36.4532 18.4199L36.4547 18.4234L36.7306 18.3054ZM36.7306 12.8065L36.4547 12.6886L36.4533 12.6921L36.7306 12.8065ZM38.2253 10.626L38.434 10.8415L38.434 10.8415L38.2253 10.626ZM40.4767 9.20384L40.5837 9.48414L40.5872 9.48274L40.4767 9.20384ZM46.4004 9.2797L46.2818 9.55526L46.2831 9.55582L46.4004 9.2797ZM48.7256 10.9862L48.932 11.2039L49.1371 11.0094L48.9551 10.7931L48.7256 10.9862ZM46.8064 12.8065L46.5861 13.0102L46.7924 13.2333L47.0128 13.0242L46.8064 12.8065ZM45.2747 11.6879L45.15 11.9608L45.1553 11.9631L45.2747 11.6879ZM41.75 11.612L41.8594 11.8914L41.8594 11.8914L41.75 11.612ZM40.4029 12.4842L40.1913 12.2714L40.1879 12.275L40.4029 12.4842ZM39.5355 13.8305L39.2573 13.7182L39.2551 13.724L39.5355 13.8305ZM39.5355 17.2626L39.255 17.369L39.2573 17.3748L39.5355 17.2626ZM40.4029 18.6277L40.1844 18.8335L40.1913 18.8405L40.4029 18.6277ZM41.7316 19.5L41.6199 19.7785L41.6222 19.7794L41.7316 19.5ZM45.1455 19.519L45.2428 19.8028L45.2465 19.8015L45.1455 19.519ZM46.7879 18.514L47.0262 18.3317L46.8305 18.076L46.5892 18.2892L46.7879 18.514ZM48.4857 20.7325L48.6695 20.9696L48.7857 20.8795V20.7325H48.4857ZM46.0313 21.984L45.9422 21.6975L45.9412 21.6978L46.0313 21.984ZM45.7545 20.3343H45.4545V20.5937L45.7112 20.6312L45.7545 20.3343ZM45.7545 15.3474V15.0474H45.4545V15.3474H45.7545ZM48.4857 15.3474H48.7857V15.0474H48.4857V15.3474ZM50.3215 22.1926H50.0215V22.4926H50.3215V22.1926ZM50.3215 8.12305V7.82305H50.0215V8.12305H50.3215ZM53.2003 8.12305H53.5003V7.82305H53.2003V8.12305ZM53.2003 22.1926V22.4926H53.5003V22.1926H53.2003ZM57.0347 21.6616L56.888 21.9233L56.8897 21.9242L57.0347 21.6616ZM55.097 19.8034L54.8383 19.9553L54.8412 19.96L55.097 19.8034ZM55.097 14.3804L54.8401 14.2256L54.8394 14.2267L55.097 14.3804ZM57.0347 12.5222L57.1782 12.7856L57.1797 12.7848L57.0347 12.5222ZM62.6632 12.5222L62.5182 12.7848L62.5213 12.7865L62.6632 12.5222ZM64.6007 19.8034L64.8583 19.9571L64.8593 19.9553L64.6007 19.8034ZM62.6632 21.6616L62.5182 21.399L62.5182 21.399L62.6632 21.6616ZM61.1499 19.5759L61.3036 19.8335L61.3036 19.8335L61.1499 19.5759ZM62.0542 18.6088L62.3192 18.7495L62.3208 18.7462L62.0542 18.6088ZM62.0542 15.575L62.3191 15.4343L62.3191 15.4343L62.0542 15.575ZM57.6437 15.575L57.3819 15.4283L57.3787 15.4343L57.6437 15.575ZM57.6437 18.6088L57.3768 18.7463L57.382 18.7554L57.6437 18.6088ZM58.5664 19.5759L58.4126 19.8335L58.4127 19.8335L58.5664 19.5759ZM70.1054 21.7753L70.2606 21.5186L70.2605 21.5185L70.1054 21.7753ZM68.6658 20.0499L68.3896 20.167L68.3903 20.1686L68.6658 20.0499ZM68.684 14.1338L68.4117 14.0079L68.4101 14.0114L68.684 14.1338ZM70.1606 12.4083L70.3158 12.6651L70.3158 12.6651L70.1606 12.4083ZM74.8661 12.4842L74.7152 12.7435L74.717 12.7445L74.8661 12.4842ZM76.6378 14.3046L76.3749 14.449L76.3766 14.4521L76.6378 14.3046ZM76.6378 19.8602L76.3766 19.7127L76.3749 19.7158L76.6378 19.8602ZM74.8661 21.6996L75.017 21.9588L75.0185 21.958L74.8661 21.6996ZM66.4879 22.1926H66.1879V22.4926H66.4879V22.1926ZM66.4879 8.12305V7.82305H66.1879V8.12305H66.4879ZM69.3671 8.12305H69.6671V7.82305H69.3671V8.12305ZM69.3671 14.0581L69.6665 14.0764L69.6671 14.0672V14.0581H69.3671ZM69.1825 17.0729L68.8831 17.0546L68.8823 17.0665L68.8825 17.0784L69.1825 17.0729ZM69.2377 20.1067L69.5378 20.1067L69.5377 20.1013L69.2377 20.1067ZM69.2377 22.1926V22.4926H69.5377V22.1926H69.2377ZM73.1315 19.5759L72.9778 19.3181L72.9741 19.3205L73.1315 19.5759ZM74.0355 18.6088L73.7721 18.4653L73.7704 18.4684L74.0355 18.6088ZM74.0355 15.575L73.7704 15.7154L73.7739 15.7218L74.0355 15.575ZM73.1315 14.6079L72.974 14.8633L72.9779 14.8656L73.1315 14.6079ZM70.5662 14.6079L70.4126 14.3502L70.4124 14.3503L70.5662 14.6079ZM69.6621 18.6088L69.3955 18.7463L69.3972 18.7496L69.6621 18.6088ZM70.5662 19.5759L70.4124 19.8334L70.4126 19.8336L70.5662 19.5759ZM84.4184 22.1926H84.1184V22.4926H84.4184V22.1926ZM84.4184 20.2015H84.7184V20.1407L84.6947 20.0846L84.4184 20.2015ZM84.2338 19.7655H83.9338V19.8263L83.9576 19.8824L84.2338 19.7655ZM83.6619 14.7217L83.4542 14.9383L83.4579 14.9417L83.6619 14.7217ZM80.3771 14.4562L80.4701 14.7415L80.4743 14.74L80.3771 14.4562ZM79.0857 15.1389L78.8174 15.273L78.9849 15.6081L79.2753 15.3714L79.0857 15.1389ZM78.0523 13.0721L77.8764 12.8291L77.6701 12.9784L77.784 13.2062L78.0523 13.0721ZM80.008 12.1618L79.9266 11.8731L79.9266 11.8731L80.008 12.1618ZM85.858 12.9393L85.6602 13.1649L85.6603 13.165L85.858 12.9393ZM87.113 22.1926V22.4926H87.413V22.1926H87.113ZM79.399 21.9461L79.2642 22.2141L79.2693 22.2166L79.399 21.9461ZM78.1258 20.8273L77.8721 20.9874L77.8722 20.9876L78.1258 20.8273ZM78.1076 17.6607L77.8558 17.4974L77.8528 17.5022L78.1076 17.6607ZM79.4913 16.5988L79.6035 16.8771L79.6081 16.8752L79.4913 16.5988ZM84.5848 16.2007H84.8848V15.9007H84.5848V16.2007ZM84.5848 17.9262V18.2262H84.8848V17.9262H84.5848ZM80.8568 18.2675L80.6586 18.0422L80.6531 18.0472L80.8568 18.2675ZM80.9127 20.0309L80.7248 20.2648L80.7303 20.2692L80.736 20.2734L80.9127 20.0309ZM83.4039 20.012L83.5575 20.2697L83.5638 20.2658L83.4039 20.012ZM84.2338 18.969L84.5192 18.8764L84.2553 18.0637L83.9532 18.863L84.2338 18.969ZM84.6771 20.3343L84.963 20.4252L84.9922 20.3334L84.9624 20.2417L84.6771 20.3343ZM83.5332 21.8322L83.6906 22.0876L83.6907 22.0876L83.5332 21.8322ZM88.9802 22.1926H88.6802V22.4926H88.9802V22.1926ZM88.9802 8.12305V7.82305H88.6802V8.12305H88.9802ZM91.8587 8.12305H92.1587V7.82305H91.8587V8.12305ZM91.8587 22.1926V22.4926H92.1587V22.1926H91.8587ZM93.9958 22.1926H93.6958V22.4926H93.9958V22.1926ZM93.9958 8.91945V8.61945H93.6958V8.91945H93.9958ZM96.4682 8.91945L96.7027 8.7324L96.6126 8.61945H96.4682V8.91945ZM104.09 18.476V18.776H104.713L104.324 18.289L104.09 18.476ZM102.89 18.476H102.59V18.776H102.89V18.476ZM102.89 8.91945V8.61945H102.59V8.91945H102.89ZM105.843 8.91945H106.143V8.61945H105.843V8.91945ZM105.843 22.1926V22.4926H106.143V22.1926H105.843ZM103.389 22.1926L103.154 22.3799L103.244 22.4926H103.389V22.1926ZM95.7487 12.6359V12.3359H95.1248L95.5143 12.8232L95.7487 12.6359ZM96.9484 12.6359H97.2484V12.3359H96.9484V12.6359ZM96.9484 22.1926V22.4926H97.2484V22.1926H96.9484ZM109.859 21.6616L109.712 21.9233L109.714 21.9242L109.859 21.6616ZM107.921 19.8034L107.663 19.9555L107.666 19.96L107.921 19.8034ZM107.921 14.3804L107.664 14.2256L107.664 14.2265L107.921 14.3804ZM109.859 12.5222L110.003 12.7856L110.004 12.7847L109.859 12.5222ZM115.487 12.5222L115.342 12.7848L115.345 12.7864L115.487 12.5222ZM117.425 19.8034L117.682 19.9571L117.683 19.9553L117.425 19.8034ZM115.487 21.6616L115.342 21.399L115.342 21.399L115.487 21.6616ZM113.974 19.5759L114.128 19.8334L114.128 19.8333L113.974 19.5759ZM114.878 18.6088L115.143 18.7496L115.145 18.7463L114.878 18.6088ZM113.974 14.6079L114.128 14.3504L114.128 14.3503L113.974 14.6079ZM111.39 14.6079L111.236 14.3503L111.236 14.3504L111.39 14.6079ZM110.468 15.575L110.206 15.4284L110.203 15.4342L110.468 15.575ZM110.468 18.6088L110.201 18.7464L110.206 18.7554L110.468 18.6088ZM111.39 19.5759L111.236 19.8333L111.236 19.8334L111.39 19.5759ZM134.113 12.3326L133.969 12.5961L133.976 12.5993L134.113 12.3326ZM135.552 13.8116L135.285 13.949L135.288 13.9544L135.552 13.8116ZM136.087 22.1926V22.4926H136.387V22.1926H136.087ZM133.208 22.1926H132.908V22.4926H133.208V22.1926ZM130.182 14.7027L130.331 14.9633L130.338 14.959L130.182 14.7027ZM129.13 22.1926V22.4926H129.43V22.1926H129.13ZM126.251 22.1926H125.951V22.4926H126.251V22.1926ZM125.753 14.9872L125.52 15.177L125.524 15.1811L125.753 14.9872ZM123.243 14.7027L123.392 14.9633L123.399 14.959L123.243 14.7027ZM122.191 22.1926V22.4926H122.491V22.1926H122.191ZM119.313 22.1926H119.013V22.4926H119.313V22.1926ZM119.313 11.9912V11.6912H119.013V11.9912H119.313ZM122.062 11.9912H122.362V11.6912H122.062V11.9912ZM122.062 14.7785L121.809 14.9391L122.362 15.8124V14.7785H122.062ZM121.546 13.9632L121.277 13.8301L121.202 13.9813L121.292 14.1238L121.546 13.9632ZM123.004 12.3894L123.151 12.6507L123.153 12.6496L123.004 12.3894ZM127.562 12.56L127.388 12.8048L127.393 12.8082L127.562 12.56ZM128.927 14.7217L128.846 15.0106L129.331 15.1466L129.22 14.6551L128.927 14.7217ZM127.912 14.4372L127.635 14.3218L127.505 14.6347L127.831 14.7261L127.912 14.4372ZM129.499 12.5411L129.338 12.2877L129.336 12.2889L129.499 12.5411ZM144.019 22.1926H143.719V22.4926H144.019V22.1926ZM144.019 20.2015H144.319V20.1407L144.295 20.0846L144.019 20.2015ZM143.835 19.7655H143.535V19.8263L143.558 19.8824L143.835 19.7655ZM143.263 14.7217L143.055 14.9383L143.059 14.9415L143.263 14.7217ZM139.978 14.4562L140.071 14.7415L140.075 14.74L139.978 14.4562ZM138.686 15.1389L138.418 15.273L138.585 15.6084L138.876 15.3712L138.686 15.1389ZM137.652 13.0721L137.476 12.8292L137.27 12.9786L137.384 13.2062L137.652 13.0721ZM139.609 12.1618L139.69 12.4506L139.69 12.4506L139.609 12.1618ZM145.458 12.9393L145.656 12.7137L145.656 12.7136L145.458 12.9393ZM146.713 22.1926V22.4926H147.013V22.1926H146.713ZM139 21.9461L138.865 22.2142L138.87 22.2166L139 21.9461ZM137.727 20.8273L137.98 20.6672L137.98 20.667L137.727 20.8273ZM137.708 17.6607L137.456 17.4974L137.453 17.5022L137.708 17.6607ZM139.092 16.5988L139.204 16.8772L139.209 16.8751L139.092 16.5988ZM144.185 16.2007H144.485V15.9007H144.185V16.2007ZM144.185 17.9262V18.2262H144.485V17.9262H144.185ZM140.458 18.2675L140.259 18.0424L140.254 18.047L140.458 18.2675ZM140.513 20.0309L140.325 20.2648L140.33 20.2692L140.336 20.2734L140.513 20.0309ZM143.004 20.012L143.157 20.2698L143.164 20.2658L143.004 20.012ZM143.835 18.969L144.12 18.8765L143.857 18.0647L143.554 18.8626L143.835 18.969ZM144.277 20.3343L144.563 20.4252L144.592 20.3334L144.563 20.2418L144.277 20.3343ZM150.387 21.6996L150.234 21.9579L150.238 21.96L150.387 21.6996ZM148.597 19.8602L148.334 20.0046L148.336 20.0079L148.597 19.8602ZM148.597 14.3046L148.335 14.1569L148.334 14.1602L148.597 14.3046ZM150.387 12.4842L150.238 12.2238L150.237 12.2239L150.387 12.4842ZM155.111 12.4083L155.266 12.1516L155.266 12.1516L155.111 12.4083ZM156.569 14.1338L156.295 14.2561L156.295 14.2565L156.569 14.1338ZM156.587 20.0499L156.862 20.1686L156.863 20.1671L156.587 20.0499ZM155.148 21.7753L154.993 21.5186L154.99 21.52L155.148 21.7753ZM154.686 19.5759L154.533 19.3181L154.533 19.3183L154.686 19.5759ZM155.591 18.6088L155.327 18.465L155.325 18.4684L155.591 18.6088ZM155.591 15.575L155.325 15.7154L155.329 15.7221L155.591 15.575ZM154.686 14.6079L154.533 14.8655L154.533 14.8657L154.686 14.6079ZM152.121 14.6079L151.968 14.3501L151.967 14.3503L152.121 14.6079ZM151.199 15.575L150.937 15.4281L150.934 15.4342L151.199 15.575ZM151.199 18.6088L150.932 18.7464L150.937 18.7557L151.199 18.6088ZM152.121 19.5759L151.967 19.8334L151.968 19.8337L152.121 19.5759ZM156.015 22.1926H155.715V22.4926H156.015V22.1926ZM156.015 20.1067L155.715 20.1013V20.1067H156.015ZM156.07 17.0729L156.37 17.0784L156.37 17.0665L156.37 17.0546L156.07 17.0729ZM155.886 14.0581H155.586V14.0672L155.587 14.0763L155.886 14.0581ZM155.886 8.12305V7.82305H155.586V8.12305H155.886ZM158.765 8.12305H159.065V7.82305H158.765V8.12305ZM158.765 22.1926V22.4926H159.065V22.1926H158.765ZM164.115 13.7522C165.558 13.7522 166.711 12.5536 166.711 11.0928H166.111C166.111 12.238 165.211 13.1522 164.115 13.1522V13.7522ZM166.711 11.0928C166.711 9.63195 165.558 8.43353 164.115 8.43353V9.03353C165.211 9.03353 166.111 9.94759 166.111 11.0928H166.711ZM164.115 8.43353C162.674 8.43353 161.52 9.6319 161.52 11.0928H162.12C162.12 9.94765 163.021 9.03353 164.115 9.03353V8.43353ZM161.52 11.0928C161.52 12.5536 162.674 13.7522 164.115 13.7522V13.1522C163.021 13.1522 162.12 12.2379 162.12 11.0928H161.52ZM43.2632 22.12C42.2747 22.12 41.3703 21.9611 40.5468 21.6468L40.3328 22.2073C41.2316 22.5504 42.2095 22.72 43.2632 22.72V22.12ZM40.5517 21.6487C39.7378 21.3215 39.0266 20.8621 38.4156 20.2705L37.9982 20.7015C38.6665 21.3487 39.444 21.85 40.3279 22.2054L40.5517 21.6487ZM38.4176 20.2725C37.8187 19.6813 37.3484 18.9871 37.0064 18.1874L36.4547 18.4234C36.8264 19.2923 37.3402 20.052 37.9961 20.6995L38.4176 20.2725ZM37.0079 18.1909C36.6799 17.3966 36.5139 16.5195 36.5139 15.556H35.9139C35.9139 16.5897 36.0923 17.5456 36.4533 18.4199L37.0079 18.1909ZM36.5139 15.556C36.5139 14.5925 36.6799 13.7153 37.0079 12.921L36.4533 12.6921C36.0923 13.5663 35.9139 14.5223 35.9139 15.556H36.5139ZM37.0064 12.9245C37.3479 12.1262 37.8235 11.4326 38.434 10.8415L38.0167 10.4105C37.3478 11.0581 36.827 11.8183 36.4547 12.6886L37.0064 12.9245ZM38.434 10.8415C39.0435 10.2513 39.7591 9.7989 40.5837 9.48412L40.3697 8.92357C39.4721 9.26625 38.6866 9.76178 38.0166 10.4105L38.434 10.8415ZM40.5872 9.48274C41.4094 9.15691 42.3187 8.9919 43.3186 8.9919V8.3919C42.2517 8.3919 41.2664 8.56819 40.3662 8.92495L40.5872 9.48274ZM43.3186 8.9919C44.4282 8.9919 45.4142 9.18185 46.2818 9.55526L46.519 9.00413C45.5658 8.5939 44.4973 8.3919 43.3186 8.3919V8.9919ZM46.2831 9.55582C47.1636 9.92981 47.8998 10.4707 48.496 11.1794L48.9551 10.7931C48.2964 10.0101 47.4825 9.41336 46.5176 9.00357L46.2831 9.55582ZM48.5191 10.7686L46.5999 12.5889L47.0128 13.0242L48.932 11.2039L48.5191 10.7686ZM47.0266 12.6029C46.5348 12.071 45.991 11.6716 45.3941 11.4126L45.1553 11.9631C45.6656 12.1845 46.1429 12.5309 46.5861 13.0102L47.0266 12.6029ZM45.3993 11.415C44.8038 11.143 44.1582 11.0086 43.4662 11.0086V11.6086C44.0784 11.6086 44.6383 11.727 45.1501 11.9607L45.3993 11.415ZM43.4662 11.0086C42.8063 11.0086 42.1965 11.115 41.6407 11.3327L41.8594 11.8914C42.337 11.7044 42.8714 11.6086 43.4662 11.6086V11.0086ZM41.6407 11.3326C41.087 11.5494 40.6028 11.8624 40.1913 12.2715L40.6144 12.6969C40.9657 12.3476 41.3797 12.0791 41.8594 11.8914L41.6407 11.3326ZM40.1879 12.275C39.7902 12.6837 39.4803 13.1658 39.2573 13.7182L39.8137 13.9428C40.0092 13.4585 40.2775 13.0432 40.6179 12.6934L40.1879 12.275ZM39.2551 13.724C39.0437 14.2807 38.9403 14.8925 38.9403 15.556H39.5403C39.5403 14.9553 39.6338 14.4169 39.816 13.937L39.2551 13.724ZM38.9403 15.556C38.9403 16.2076 39.044 16.813 39.2551 17.369L39.816 17.1561C39.6336 16.6755 39.5403 16.1432 39.5403 15.556H38.9403ZM39.2573 17.3748C39.4799 17.9263 39.7889 18.4134 40.1845 18.8334L40.6213 18.4221C40.2788 18.0584 40.0095 17.6353 39.8137 17.1503L39.2573 17.3748ZM40.1913 18.8405C40.6015 19.2484 41.0785 19.5614 41.62 19.7785L41.8432 19.2215C41.3757 19.0341 40.9669 18.7656 40.6144 18.415L40.1913 18.8405ZM41.6222 19.7794C42.1773 19.9966 42.7808 20.1034 43.4293 20.1034V19.5034C42.8475 19.5034 42.3192 19.4078 41.8409 19.2206L41.6222 19.7794ZM43.4293 20.1034C44.0526 20.1034 44.6576 20.0032 45.2427 19.8028L45.0483 19.2351C44.5263 19.4139 43.9871 19.5034 43.4293 19.5034V20.1034ZM45.2465 19.8015C45.854 19.5843 46.4339 19.2274 46.9866 18.7388L46.5892 18.2892C46.0839 18.736 45.5688 19.0491 45.0446 19.2364L45.2465 19.8015ZM46.5497 18.6963L48.2474 20.9148L48.7239 20.5502L47.0262 18.3317L46.5497 18.6963ZM48.3019 20.4954C47.6318 21.0148 46.8465 21.4163 45.9422 21.6975L46.1204 22.2704C47.0861 21.9701 47.9371 21.5373 48.6695 20.9696L48.3019 20.4954ZM45.9412 21.6978C45.0462 21.9798 44.1539 22.12 43.2632 22.12V22.72C44.218 22.72 45.171 22.5696 46.1215 22.2701L45.9412 21.6978ZM46.0545 20.3343V15.3474H45.4545V20.3343H46.0545ZM45.7545 15.6474H48.4857V15.0474H45.7545V15.6474ZM48.1857 15.3474V20.7325H48.7857V15.3474H48.1857ZM48.5289 20.4356L45.7978 20.0374L45.7112 20.6312L48.4424 21.0294L48.5289 20.4356ZM50.6215 22.1926V8.12305H50.0215V22.1926H50.6215ZM50.3215 8.42305H53.2003V7.82305H50.3215V8.42305ZM52.9003 8.12305V22.1926H53.5003V8.12305H52.9003ZM53.2003 21.8926H50.3215V22.4926H53.2003V21.8926ZM59.8581 22.0442C58.8444 22.0442 57.9543 21.8266 57.1797 21.399L56.8897 21.9242C57.7636 22.4068 58.7557 22.6442 59.8581 22.6442V22.0442ZM57.1813 21.3999C56.4136 20.9696 55.8055 20.3862 55.3529 19.6468L54.8412 19.96C55.3481 20.7882 56.0319 21.4435 56.888 21.9233L57.1813 21.3999ZM55.3558 19.6515C54.9178 18.9055 54.6958 18.055 54.6958 17.0919H54.0958C54.0958 18.1513 54.3412 19.1085 54.8383 19.9553L55.3558 19.6515ZM54.6958 17.0919C54.6958 16.1153 54.9181 15.2659 55.3547 14.5341L54.8394 14.2267C54.3409 15.0624 54.0958 16.0206 54.0958 17.0919H54.6958ZM55.354 14.5352C55.8065 13.7842 56.4133 13.2024 57.1782 12.7856L56.8911 12.2587C56.0321 12.7268 55.3472 13.3838 54.8401 14.2256L55.354 14.5352ZM57.1797 12.7848C57.9543 12.3571 58.8444 12.1396 59.8581 12.1396V11.5396C58.7557 11.5396 57.7636 11.777 56.8897 12.2595L57.1797 12.7848ZM59.8581 12.1396C60.8588 12.1396 61.7431 12.3568 62.5182 12.7848L62.8082 12.2595C61.9347 11.7773 60.9488 11.5396 59.8581 11.5396V12.1396ZM62.5213 12.7865C63.299 13.2039 63.9039 13.7792 64.343 14.5151L64.8583 14.2077C64.362 13.3761 63.6761 12.7254 62.8051 12.2578L62.5213 12.7865ZM64.343 14.5151C64.7794 15.2463 65.0019 16.1019 65.0019 17.0919H65.6019C65.6019 16.0088 65.3574 15.044 64.8583 14.2077L64.343 14.5151ZM65.0019 17.0919C65.0019 18.055 64.7801 18.9055 64.342 19.6515L64.8593 19.9553C65.3567 19.1085 65.6019 18.1513 65.6019 17.0919H65.0019ZM64.343 19.6497C63.9034 20.3864 63.2975 20.9688 62.5182 21.399L62.8082 21.9242C63.6776 21.4443 64.3625 20.788 64.8583 19.9571L64.343 19.6497ZM62.5182 21.399C61.7431 21.8269 60.8588 22.0442 59.8581 22.0442V22.6442C60.9488 22.6442 61.9347 22.4065 62.8082 21.9242L62.5182 21.399ZM59.8581 20.2172C60.3876 20.2172 60.8721 20.0909 61.3036 19.8335L60.9962 19.3182C60.6651 19.5158 60.2883 19.6172 59.8581 19.6172V20.2172ZM61.3036 19.8335C61.7351 19.576 62.0736 19.2118 62.3191 18.7495L61.7892 18.4681C61.5917 18.8401 61.3274 19.1206 60.9962 19.3182L61.3036 19.8335ZM62.3208 18.7462C62.5682 18.2661 62.6863 17.7115 62.6863 17.0919H62.0863C62.0863 17.6351 61.983 18.0919 61.7875 18.4714L62.3208 18.7462ZM62.6863 17.0919C62.6863 16.4611 62.5688 15.9045 62.3191 15.4343L61.7892 15.7156C61.9824 16.0797 62.0863 16.5344 62.0863 17.0919H62.6863ZM62.3191 15.4343C62.0736 14.9719 61.7351 14.6077 61.3036 14.3503L60.9962 14.8655C61.3274 15.0632 61.5917 15.3437 61.7892 15.7156L62.3191 15.4343ZM61.3036 14.3503C60.8721 14.0928 60.3876 13.9666 59.8581 13.9666V14.5666C60.2884 14.5666 60.6651 14.6679 60.9962 14.8655L61.3036 14.3503ZM59.8581 13.9666C59.3287 13.9666 58.8442 14.0928 58.4126 14.3503L58.7201 14.8655C59.0512 14.6679 59.4279 14.5666 59.8581 14.5666V13.9666ZM58.4126 14.3503C57.9828 14.6068 57.6393 14.969 57.382 15.4283L57.9054 15.7216C58.1155 15.3466 58.3873 15.0641 58.7201 14.8655L58.4126 14.3503ZM57.3787 15.4343C57.1291 15.9045 57.0115 16.4611 57.0115 17.0919H57.6115C57.6115 16.5344 57.7154 16.0797 57.9087 15.7156L57.3787 15.4343ZM57.0115 17.0919C57.0115 17.7115 57.1297 18.2662 57.377 18.7462L57.9104 18.4714C57.7148 18.0919 57.6115 17.6351 57.6115 17.0919H57.0115ZM57.382 18.7554C57.6393 19.2148 57.9828 19.577 58.4126 19.8335L58.7201 19.3182C58.3873 19.1196 58.1155 18.8371 57.9054 18.4622L57.382 18.7554ZM58.4127 19.8335C58.8442 20.0909 59.3287 20.2172 59.8581 20.2172V19.6172C59.428 19.6172 59.0512 19.5158 58.7201 19.3182L58.4127 19.8335ZM72.3567 22.0442C71.527 22.0442 70.8327 21.8645 70.2606 21.5186L69.9502 22.0321C70.6325 22.4447 71.4387 22.6442 72.3567 22.6442V22.0442ZM70.2605 21.5185C69.6938 21.1763 69.2524 20.6535 68.9413 19.9312L68.3903 20.1686C68.7434 20.9884 69.2613 21.616 69.9503 22.0321L70.2605 21.5185ZM68.942 19.9329C68.6305 19.1976 68.4673 18.2546 68.4673 17.0919H67.8673C67.8673 18.3055 68.0369 19.3346 68.3896 20.1669L68.942 19.9329ZM68.4673 17.0919C68.4673 15.9165 68.6361 14.9761 68.9579 14.2563L68.4101 14.0114C68.0425 14.8337 67.8673 15.8653 67.8673 17.0919H68.4673ZM68.9563 14.2598C69.2918 13.5343 69.7469 13.0088 70.3158 12.6651L70.0055 12.1516C69.3187 12.5664 68.7893 13.1914 68.4117 14.0079L68.9563 14.2598ZM70.3158 12.6651C70.8899 12.318 71.5667 12.1396 72.3567 12.1396V11.5396C71.4731 11.5396 70.6858 11.7403 70.0054 12.1516L70.3158 12.6651ZM72.3567 12.1396C73.2437 12.1396 74.027 12.3428 74.7152 12.7435L75.0171 12.2249C74.2287 11.766 73.3395 11.5396 72.3567 11.5396V12.1396ZM74.717 12.7445C75.4178 13.1459 75.9699 13.7118 76.3749 14.449L76.9008 14.1601C76.4445 13.3296 75.815 12.682 75.0153 12.2239L74.717 12.7445ZM76.3766 14.4521C76.7893 15.1829 77.0021 16.0592 77.0021 17.0919H77.6021C77.6021 15.9757 77.3716 14.9938 76.8991 14.157L76.3766 14.4521ZM77.0021 17.0919C77.0021 18.1113 76.7896 18.9814 76.3766 19.7127L76.8991 20.0078C77.3713 19.1716 77.6021 18.1961 77.6021 17.0919H77.0021ZM76.3749 19.7158C75.9695 20.4536 75.4164 21.0268 74.7137 21.4412L75.0185 21.958C75.8164 21.4874 76.4448 20.8344 76.9008 20.0047L76.3749 19.7158ZM74.7152 21.4403C74.027 21.8409 73.2437 22.0442 72.3567 22.0442V22.6442C73.3395 22.6442 74.2287 22.4177 75.017 21.9588L74.7152 21.4403ZM66.7879 22.1926V8.12305H66.1879V22.1926H66.7879ZM66.4879 8.42305H69.3671V7.82305H66.4879V8.42305ZM69.0671 8.12305V14.0581H69.6671V8.12305H69.0671ZM69.0676 14.0397L68.8831 17.0546L69.4819 17.0912L69.6665 14.0764L69.0676 14.0397ZM68.8825 17.0784L68.9378 20.1122L69.5377 20.1013L69.4824 17.0674L68.8825 17.0784ZM68.9377 20.1067V22.1926H69.5377V20.1067H68.9377ZM69.2377 21.8926H66.4879V22.4926H69.2377V21.8926ZM71.8583 20.2172C72.3874 20.2172 72.8675 20.0909 73.2889 19.8313L72.9741 19.3205C72.6572 19.5158 72.2884 19.6172 71.8583 19.6172V20.2172ZM73.2851 19.8335C73.717 19.5761 74.0556 19.2118 74.3006 18.7492L73.7704 18.4684C73.5735 18.8401 73.3094 19.1205 72.9779 19.3182L73.2851 19.8335ZM74.299 18.7523C74.5613 18.2708 74.6865 17.7139 74.6865 17.0919H74.0865C74.0865 17.6327 73.9781 18.0872 73.7721 18.4653L74.299 18.7523ZM74.6865 17.0919C74.6865 16.4587 74.5619 15.8998 74.2971 15.4281L73.7739 15.7218C73.9775 16.0844 74.0865 16.5367 74.0865 17.0919H74.6865ZM74.3006 15.4345C74.0556 14.972 73.717 14.6077 73.2851 14.3502L72.9779 14.8656C73.3094 15.0632 73.5735 15.3436 73.7704 15.7154L74.3006 15.4345ZM73.2889 14.3525C72.8675 14.0927 72.3874 13.9666 71.8583 13.9666V14.5666C72.2884 14.5666 72.6572 14.6679 72.9741 14.8633L73.2889 14.3525ZM71.8583 13.9666C71.329 13.9666 70.8444 14.0928 70.4126 14.3502L70.7198 14.8656C71.0514 14.6679 71.4282 14.5666 71.8583 14.5666V13.9666ZM70.4124 14.3503C69.9813 14.6078 69.6428 14.9719 69.3972 15.4342L69.9271 15.7157C70.1247 15.3437 70.389 15.0631 70.72 14.8655L70.4124 14.3503ZM69.3972 15.4342C69.1473 15.9045 69.03 16.4612 69.03 17.0919H69.63C69.63 16.5343 69.7337 16.0797 69.9271 15.7157L69.3972 15.4342ZM69.03 17.0919C69.03 17.7114 69.1479 18.2661 69.3955 18.7463L69.9288 18.4713C69.7332 18.0919 69.63 17.6352 69.63 17.0919H69.03ZM69.3972 18.7496C69.6428 19.2118 69.9813 19.576 70.4124 19.8334L70.72 19.3183C70.389 19.1206 70.1247 18.8401 69.9271 18.4681L69.3972 18.7496ZM70.4126 19.8336C70.8444 20.0909 71.3289 20.2172 71.8583 20.2172V19.6172C71.4283 19.6172 71.0514 19.5158 70.7198 19.3181L70.4126 19.8336ZM84.7184 22.1926V20.2015H84.1184V22.1926H84.7184ZM84.6947 20.0846L84.5101 19.6485L83.9576 19.8824L84.1421 20.3185L84.6947 20.0846ZM84.5338 19.7655V16.2007H83.9338V19.7655H84.5338ZM84.5338 16.2007C84.5338 15.5047 84.3218 14.9244 83.8658 14.5017L83.4579 14.9417C83.7654 15.2267 83.9338 15.6325 83.9338 16.2007H84.5338ZM83.8695 14.5052C83.4216 14.0757 82.7592 13.8907 81.9461 13.8907V14.4907C82.6824 14.4907 83.1639 14.6598 83.4543 14.9383L83.8695 14.5052ZM81.9461 13.8907C81.3827 13.8907 80.8269 13.985 80.2799 14.1724L80.4743 14.74C80.9608 14.5734 81.4509 14.4907 81.9461 14.4907V13.8907ZM80.2842 14.171C79.7502 14.345 79.2855 14.5889 78.8961 14.9064L79.2753 15.3714C79.5992 15.1073 79.9958 14.896 80.4701 14.7414L80.2842 14.171ZM79.354 15.0047L78.3207 12.9379L77.784 13.2062L78.8174 15.273L79.354 15.0047ZM78.2283 13.315C78.7361 12.9473 79.3544 12.6577 80.0894 12.4506L79.9266 11.8731C79.136 12.0959 78.4509 12.413 77.8764 12.8291L78.2283 13.315ZM80.0893 12.4506C80.8258 12.2432 81.5738 12.1396 82.3334 12.1396V11.5396C81.5185 11.5396 80.7158 11.6508 79.9266 11.8731L80.0893 12.4506ZM82.3334 12.1396C83.8001 12.1396 84.8957 12.4947 85.6602 13.1649L86.0558 12.7137C85.1478 11.9177 83.8928 11.5396 82.3334 11.5396V12.1396ZM85.6603 13.165C86.4094 13.8212 86.813 14.8672 86.813 16.3714H87.413C87.413 14.7658 86.9803 13.5237 86.0557 12.7136L85.6603 13.165ZM86.813 16.3714V22.1926H87.413V16.3714H86.813ZM87.113 21.8926H84.4184V22.4926H87.113V21.8926ZM81.3923 22.0442C80.6504 22.0442 80.0328 21.9172 79.5287 21.6755L79.2693 22.2166C79.8727 22.5058 80.5835 22.6442 81.3923 22.6442V22.0442ZM79.5338 21.678C79.0234 21.4214 78.6426 21.0834 78.3793 20.667L77.8722 20.9876C78.2003 21.5066 78.6684 21.9145 79.2642 22.2141L79.5338 21.678ZM78.3795 20.6672C78.1163 20.25 77.9832 19.7813 77.9832 19.2535H77.3832C77.3832 19.8885 77.5451 20.4693 77.8721 20.9874L78.3795 20.6672ZM77.9832 19.2535C77.9832 18.695 78.1126 18.2206 78.3623 17.8192L77.8528 17.5022C77.5363 18.011 77.3832 18.5984 77.3832 19.2535H77.9832ZM78.3593 17.8239C78.6133 17.4323 79.0192 17.1127 79.6035 16.8771L79.3791 16.3206C78.709 16.5908 78.192 16.9791 77.8559 17.4975L78.3593 17.8239ZM79.6081 16.8752C80.1857 16.631 80.9597 16.5007 81.9461 16.5007V15.9007C80.9146 15.9007 80.0526 16.0358 79.3745 16.3225L79.6081 16.8752ZM81.9461 16.5007H84.5848V15.9007H81.9461V16.5007ZM84.2848 16.2007V17.9262H84.8848V16.2007H84.2848ZM84.5848 17.6262H82.2593V18.2262H84.5848V17.6262ZM82.2593 17.6262C81.5701 17.6262 81.0048 17.7377 80.6586 18.0423L81.0549 18.4927C81.2261 18.3422 81.595 18.2262 82.2593 18.2262V17.6262ZM80.6531 18.0472C80.3441 18.333 80.1883 18.6979 80.1883 19.1207H80.7883C80.7883 18.861 80.8773 18.6571 81.0605 18.4878L80.6531 18.0472ZM80.1883 19.1207C80.1883 19.5861 80.3671 19.9774 80.7248 20.2648L81.1006 19.797C80.892 19.6295 80.7883 19.4139 80.7883 19.1207H80.1883ZM80.736 20.2734C81.0987 20.5376 81.5679 20.6532 82.1118 20.6532V20.0532C81.6474 20.0532 81.3167 19.9541 81.0893 19.7884L80.736 20.2734ZM82.1118 20.6532C82.6411 20.6532 83.1256 20.5271 83.5575 20.2696L83.2502 19.7543C82.9187 19.9519 82.5418 20.0532 82.1118 20.0532V20.6532ZM83.5638 20.2658C84.0046 19.988 84.3213 19.5862 84.5145 19.0751L83.9532 18.863C83.8023 19.2621 83.5653 19.5556 83.2439 19.7581L83.5638 20.2658ZM83.9485 19.0617L84.3917 20.4269L84.9624 20.2417L84.5192 18.8764L83.9485 19.0617ZM84.3912 20.2434C84.2025 20.8367 83.8639 21.2757 83.3756 21.5769L83.6907 22.0876C84.3087 21.7062 84.7335 21.1465 84.963 20.4252L84.3912 20.2434ZM83.3758 21.5769C82.883 21.8806 82.2285 22.0442 81.3923 22.0442V22.6442C82.3027 22.6442 83.0759 22.4665 83.6906 22.0876L83.3758 21.5769ZM89.2802 22.1926V8.12305H88.6802V22.1926H89.2802ZM88.9802 8.42305H91.8587V7.82305H88.9802V8.42305ZM91.5587 8.12305V22.1926H92.1587V8.12305H91.5587ZM91.8587 21.8926H88.9802V22.4926H91.8587V21.8926ZM94.2958 22.1926V8.91945H93.6958V22.1926H94.2958ZM93.9958 9.21945H96.4682V8.61945H93.9958V9.21945ZM96.2336 9.10651L103.855 18.6631L104.324 18.289L96.7027 8.7324L96.2336 9.10651ZM104.09 18.176H102.89V18.776H104.09V18.176ZM103.19 18.476V8.91945H102.59V18.476H103.19ZM102.89 9.21945H105.843V8.61945H102.89V9.21945ZM105.543 8.91945V22.1926H106.143V8.91945H105.543ZM105.843 21.8926H103.389V22.4926H105.843V21.8926ZM103.623 22.0052L95.983 12.4486L95.5143 12.8232L103.154 22.3799L103.623 22.0052ZM95.7487 12.9359H96.9484V12.3359H95.7487V12.9359ZM96.6484 12.6359V22.1926H97.2484V12.6359H96.6484ZM96.9484 21.8926H93.9958V22.4926H96.9484V21.8926ZM112.682 22.0442C111.668 22.0442 110.778 21.8266 110.004 21.399L109.714 21.9242C110.587 22.4068 111.579 22.6442 112.682 22.6442V22.0442ZM110.006 21.3999C109.238 20.9696 108.63 20.3862 108.177 19.6468L107.666 19.96C108.172 20.7882 108.856 21.4435 109.712 21.9233L110.006 21.3999ZM108.18 19.6513C107.741 18.9055 107.52 18.0552 107.52 17.0919H106.92C106.92 18.1512 107.165 19.1085 107.663 19.9555L108.18 19.6513ZM107.52 17.0919C107.52 16.1151 107.742 15.2659 108.179 14.5343L107.664 14.2265C107.164 15.0625 106.92 16.0208 106.92 17.0919H107.52ZM108.178 14.5352C108.631 13.7842 109.238 13.2024 110.003 12.7856L109.715 12.2587C108.857 12.7268 108.171 13.3838 107.664 14.2256L108.178 14.5352ZM110.004 12.7847C110.778 12.3571 111.668 12.1396 112.682 12.1396V11.5396C111.579 11.5396 110.587 11.777 109.714 12.2596L110.004 12.7847ZM112.682 12.1396C113.683 12.1396 114.568 12.3568 115.342 12.7847L115.632 12.2596C114.759 11.7772 113.772 11.5396 112.682 11.5396V12.1396ZM115.345 12.7864C116.122 13.2039 116.728 13.7792 117.167 14.5151L117.682 14.2077C117.186 13.376 116.5 12.7254 115.629 12.2579L115.345 12.7864ZM117.167 14.5151C117.604 15.2463 117.826 16.1019 117.826 17.0919H118.426C118.426 16.0088 118.181 15.044 117.682 14.2077L117.167 14.5151ZM117.826 17.0919C117.826 18.055 117.604 18.9055 117.166 19.6515L117.683 19.9553C118.181 19.1085 118.426 18.1513 118.426 17.0919H117.826ZM117.167 19.6497C116.728 20.3863 116.121 20.9688 115.342 21.399L115.632 21.9242C116.501 21.4443 117.187 20.788 117.682 19.9571L117.167 19.6497ZM115.342 21.399C114.568 21.8269 113.683 22.0442 112.682 22.0442V22.6442C113.772 22.6442 114.759 22.4065 115.632 21.9242L115.342 21.399ZM112.682 20.2172C113.211 20.2172 113.697 20.091 114.128 19.8334L113.821 19.3183C113.49 19.5157 113.112 19.6172 112.682 19.6172V20.2172ZM114.128 19.8333C114.558 19.576 114.898 19.212 115.143 18.7496L114.613 18.4681C114.416 18.8399 114.151 19.1206 113.82 19.3184L114.128 19.8333ZM115.145 18.7463C115.393 18.2661 115.51 17.7114 115.51 17.0919H114.91C114.91 17.6352 114.807 18.0919 114.612 18.4713L115.145 18.7463ZM115.51 17.0919C115.51 16.4612 115.393 15.9045 115.143 15.4342L114.613 15.7157C114.807 16.0797 114.91 16.5343 114.91 17.0919H115.51ZM115.143 15.4342C114.898 14.9718 114.558 14.6077 114.128 14.3504L113.82 14.8654C114.151 15.0632 114.416 15.3438 114.613 15.7157L115.143 15.4342ZM114.128 14.3503C113.697 14.0927 113.211 13.9666 112.682 13.9666V14.5666C113.112 14.5666 113.49 14.668 113.82 14.8655L114.128 14.3503ZM112.682 13.9666C112.153 13.9666 111.668 14.0927 111.236 14.3503L111.544 14.8655C111.875 14.668 112.252 14.5666 112.682 14.5666V13.9666ZM111.236 14.3504C110.808 14.6068 110.463 14.9688 110.206 15.4284L110.73 15.7215C110.939 15.3468 111.212 15.0641 111.544 14.8654L111.236 14.3504ZM110.203 15.4342C109.953 15.9045 109.836 16.4612 109.836 17.0919H110.436C110.436 16.5343 110.539 16.0797 110.733 15.7157L110.203 15.4342ZM109.836 17.0919C109.836 17.7114 109.954 18.2661 110.201 18.7463L110.735 18.4713C110.539 18.0919 110.436 17.6352 110.436 17.0919H109.836ZM110.206 18.7554C110.463 19.2149 110.808 19.577 111.236 19.8333L111.544 19.3184C111.212 19.1196 110.939 18.837 110.73 18.4622L110.206 18.7554ZM111.236 19.8334C111.668 20.091 112.153 20.2172 112.682 20.2172V19.6172C112.252 19.6172 111.875 19.5157 111.544 19.3183L111.236 19.8334ZM132.027 12.1396C132.772 12.1396 133.415 12.2946 133.969 12.5961L134.256 12.069C133.602 11.7132 132.857 11.5396 132.027 11.5396V12.1396ZM133.976 12.5993C134.529 12.8841 134.966 13.3291 135.285 13.949L135.818 13.6741C135.447 12.9539 134.925 12.413 134.25 12.0658L133.976 12.5993ZM135.288 13.9544C135.613 14.5544 135.787 15.3478 135.787 16.3523H136.387C136.387 15.2838 136.203 14.3832 135.816 13.6687L135.288 13.9544ZM135.787 16.3523V22.1926H136.387V16.3523H135.787ZM136.087 21.8926H133.208V22.4926H136.087V21.8926ZM133.508 22.1926V16.8075H132.908V22.1926H133.508ZM133.508 16.8075C133.508 15.9549 133.338 15.2635 132.939 14.7932L132.481 15.1811C132.747 15.4944 132.908 16.0166 132.908 16.8075H133.508ZM132.939 14.7932C132.54 14.3221 131.981 14.0994 131.308 14.0994V14.6994C131.839 14.6994 132.216 14.8685 132.481 15.1811L132.939 14.7932ZM131.308 14.0994C130.838 14.0994 130.409 14.2136 130.026 14.4464L130.338 14.959C130.62 14.7875 130.939 14.6994 131.308 14.6994V14.0994ZM130.033 14.4422C129.641 14.6663 129.343 15.0071 129.135 15.4471L129.678 15.7028C129.84 15.3592 130.059 15.1184 130.331 14.9632L130.033 14.4422ZM129.135 15.4471C128.926 15.8916 128.83 16.4385 128.83 17.0729H129.43C129.43 16.4938 129.518 16.0419 129.678 15.7028L129.135 15.4471ZM128.83 17.0729V22.1926H129.43V17.0729H128.83ZM129.13 21.8926H126.251V22.4926H129.13V21.8926ZM126.551 22.1926V16.8075H125.951V22.1926H126.551ZM126.551 16.8075C126.551 15.9546 126.38 15.2634 125.982 14.7932L125.524 15.1811C125.79 15.4946 125.951 16.0168 125.951 16.8075H126.551ZM125.985 14.7973C125.597 14.3223 125.042 14.0994 124.369 14.0994V14.6994C124.9 14.6994 125.268 14.8684 125.52 15.177L125.985 14.7973ZM124.369 14.0994C123.899 14.0994 123.47 14.2136 123.087 14.4464L123.399 14.959C123.681 14.7875 124.001 14.6994 124.369 14.6994V14.0994ZM123.095 14.4422C122.702 14.6663 122.404 15.0071 122.197 15.4471L122.739 15.7028C122.901 15.3592 123.12 15.1184 123.392 14.9632L123.095 14.4422ZM122.197 15.4471C121.987 15.8916 121.891 16.4385 121.891 17.0729H122.491C122.491 16.4938 122.58 16.0419 122.739 15.7028L122.197 15.4471ZM121.891 17.0729V22.1926H122.491V17.0729H121.891ZM122.191 21.8926H119.313V22.4926H122.191V21.8926ZM119.613 22.1926V11.9912H119.013V22.1926H119.613ZM119.313 12.2912H122.062V11.6912H119.313V12.2912ZM121.762 11.9912V14.7785H122.362V11.9912H121.762ZM122.316 14.618L121.799 13.8026L121.292 14.1238L121.809 14.9391L122.316 14.618ZM121.815 14.0963C122.134 13.4507 122.58 12.9728 123.151 12.6507L122.856 12.1281C122.172 12.5139 121.646 13.0853 121.277 13.8301L121.815 14.0963ZM123.153 12.6496C123.742 12.3118 124.416 12.1396 125.181 12.1396V11.5396C124.322 11.5396 123.543 11.7339 122.854 12.1292L123.153 12.6496ZM125.181 12.1396C126.035 12.1396 126.766 12.3638 127.388 12.8048L127.735 12.3153C127.002 11.7955 126.146 11.5396 125.181 11.5396V12.1396ZM127.393 12.8082C128.006 13.225 128.426 13.8734 128.635 14.7883L129.22 14.6551C128.985 13.6231 128.493 12.8304 127.73 12.3119L127.393 12.8082ZM129.008 14.4328L127.993 14.1484L127.831 14.7261L128.846 15.0106L129.008 14.4328ZM128.189 14.5527C128.497 13.8125 128.987 13.2281 129.661 12.7933L129.336 12.2889C128.56 12.7895 127.991 13.4692 127.635 14.3218L128.189 14.5527ZM129.66 12.7945C130.346 12.3598 131.132 12.1396 132.027 12.1396V11.5396C131.028 11.5396 130.129 11.787 129.338 12.2877L129.66 12.7945ZM144.319 22.1926V20.2015H143.719V22.1926H144.319ZM144.295 20.0846L144.111 19.6485L143.558 19.8824L143.743 20.3185L144.295 20.0846ZM144.135 19.7655V16.2007H143.535V19.7655H144.135ZM144.135 16.2007C144.135 15.5044 143.922 14.9244 143.467 14.5019L143.059 14.9415C143.366 15.2267 143.535 15.6327 143.535 16.2007H144.135ZM143.47 14.5052C143.022 14.0757 142.36 13.8907 141.546 13.8907V14.4907C142.283 14.4907 142.765 14.6599 143.055 14.9383L143.47 14.5052ZM141.546 13.8907C140.982 13.8907 140.428 13.9851 139.881 14.1724L140.075 14.74C140.562 14.5734 141.051 14.4907 141.546 14.4907V13.8907ZM139.885 14.1709C139.351 14.3449 138.885 14.5888 138.496 14.9065L138.876 15.3712C139.199 15.1074 139.596 14.8961 140.071 14.7415L139.885 14.1709ZM138.954 15.0047L137.921 12.9379L137.384 13.2062L138.418 15.273L138.954 15.0047ZM137.829 13.3149C138.336 12.9473 138.954 12.6578 139.69 12.4506L139.527 11.8731C138.736 12.0959 138.05 12.413 137.476 12.8292L137.829 13.3149ZM139.69 12.4506C140.425 12.2432 141.173 12.1396 141.934 12.1396V11.5396C141.118 11.5396 140.315 11.6508 139.527 11.8731L139.69 12.4506ZM141.934 12.1396C143.401 12.1396 144.495 12.4946 145.26 13.165L145.656 12.7136C144.747 11.9177 143.494 11.5396 141.934 11.5396V12.1396ZM145.26 13.1649C146.009 13.8212 146.413 14.8674 146.413 16.3714H147.013C147.013 14.7657 146.58 13.5237 145.656 12.7137L145.26 13.1649ZM146.413 16.3714V22.1926H147.013V16.3714H146.413ZM146.713 21.8926H144.019V22.4926H146.713V21.8926ZM140.992 22.0442C140.251 22.0442 139.634 21.9172 139.129 21.6755L138.87 22.2166C139.473 22.5058 140.184 22.6442 140.992 22.6442V22.0442ZM139.134 21.678C138.623 21.4214 138.243 21.0834 137.98 20.6672L137.473 20.9874C137.8 21.5066 138.269 21.9146 138.865 22.2142L139.134 21.678ZM137.98 20.667C137.716 20.2499 137.583 19.7813 137.583 19.2535H136.983C136.983 19.8885 137.145 20.4694 137.473 20.9876L137.98 20.667ZM137.583 19.2535C137.583 18.695 137.713 18.2206 137.962 17.8192L137.453 17.5022C137.136 18.011 136.983 18.5984 136.983 19.2535H137.583ZM137.959 17.8239C138.213 17.4323 138.619 17.1127 139.204 16.8771L138.98 16.3206C138.309 16.5907 137.792 16.979 137.456 17.4975L137.959 17.8239ZM139.209 16.8751C139.786 16.631 140.559 16.5007 141.546 16.5007V15.9007C140.514 15.9007 139.653 16.0358 138.975 16.3226L139.209 16.8751ZM141.546 16.5007H144.185V15.9007H141.546V16.5007ZM143.885 16.2007V17.9262H144.485V16.2007H143.885ZM144.185 17.6262H141.86V18.2262H144.185V17.6262ZM141.86 17.6262C141.17 17.6262 140.605 17.7376 140.259 18.0425L140.656 18.4925C140.826 18.3423 141.195 18.2262 141.86 18.2262V17.6262ZM140.254 18.047C139.944 18.3328 139.788 18.6979 139.788 19.1207H140.388C140.388 18.861 140.477 18.6573 140.661 18.488L140.254 18.047ZM139.788 19.1207C139.788 19.5861 139.967 19.9774 140.325 20.2648L140.701 19.797C140.492 19.6294 140.388 19.4139 140.388 19.1207H139.788ZM140.336 20.2734C140.699 20.5376 141.168 20.6532 141.713 20.6532V20.0532C141.248 20.0532 140.917 19.954 140.689 19.7884L140.336 20.2734ZM141.713 20.6532C142.242 20.6532 142.725 20.527 143.157 20.2697L142.851 19.7542C142.518 19.952 142.142 20.0532 141.713 20.0532V20.6532ZM143.164 20.2658C143.605 19.988 143.921 19.5863 144.115 19.0755L143.554 18.8626C143.403 19.2621 143.165 19.5556 142.844 19.7581L143.164 20.2658ZM143.549 19.0616L143.992 20.4268L144.563 20.2418L144.12 18.8765L143.549 19.0616ZM143.991 20.2434C143.803 20.8368 143.465 21.2757 142.976 21.5769L143.291 22.0876C143.91 21.7062 144.334 21.1463 144.563 20.4252L143.991 20.2434ZM142.976 21.5769C142.483 21.8806 141.828 22.0442 140.992 22.0442V22.6442C141.902 22.6442 142.676 22.4665 143.291 22.0876L142.976 21.5769ZM152.915 22.0442C152.028 22.0442 151.238 21.8409 150.535 21.4391L150.238 21.96C151.038 22.4176 151.932 22.6442 152.915 22.6442V22.0442ZM150.539 21.4412C149.836 21.0263 149.276 20.4521 148.858 19.7126L148.336 20.0079C148.804 20.8359 149.438 21.4878 150.234 21.9579L150.539 21.4412ZM148.86 19.7159C148.458 18.9838 148.251 18.1125 148.251 17.0919H147.651C147.651 18.1949 147.875 19.1691 148.334 20.0046L148.86 19.7159ZM148.251 17.0919C148.251 16.0579 148.458 15.1805 148.86 14.4489L148.334 14.1602C147.875 14.9962 147.651 15.9769 147.651 17.0919H148.251ZM148.858 14.4522C149.276 13.7133 149.835 13.1463 150.536 12.7445L150.237 12.2239C149.439 12.6816 148.804 13.3281 148.336 14.1569L148.858 14.4522ZM150.535 12.7446C151.238 12.3428 152.028 12.1396 152.915 12.1396V11.5396C151.932 11.5396 151.038 11.766 150.238 12.2238L150.535 12.7446ZM152.915 12.1396C153.705 12.1396 154.382 12.318 154.956 12.6651L155.266 12.1516C154.586 11.7403 153.798 11.5396 152.915 11.5396V12.1396ZM154.956 12.6651C155.523 13.0081 155.972 13.5324 156.295 14.2561L156.843 14.0116C156.478 13.1933 155.953 12.5671 155.266 12.1516L154.956 12.6651ZM156.295 14.2565C156.617 14.9761 156.785 15.9164 156.785 17.0919H157.385C157.385 15.8655 157.211 14.8337 156.842 14.0112L156.295 14.2565ZM156.785 17.0919C156.785 18.2548 156.623 19.1976 156.311 19.9327L156.863 20.1671C157.216 19.3346 157.385 18.3054 157.385 17.0919H156.785ZM156.311 19.9312C156 20.6535 155.559 21.1763 154.993 21.5186L155.303 22.0321C155.991 21.616 156.509 20.9883 156.862 20.1686L156.311 19.9312ZM154.99 21.52C154.432 21.8645 153.745 22.0442 152.915 22.0442V22.6442C153.833 22.6442 154.634 22.4447 155.305 22.0307L154.99 21.52ZM153.413 20.2172C153.932 20.2172 154.41 20.0902 154.84 19.8334L154.533 19.3183C154.201 19.5165 153.83 19.6172 153.413 19.6172V20.2172ZM154.84 19.8337C155.273 19.5761 155.611 19.2116 155.856 18.7492L155.325 18.4684C155.128 18.8403 154.865 19.1205 154.533 19.3181L154.84 19.8337ZM155.854 18.7526C156.117 18.2708 156.242 17.7136 156.242 17.0919H155.642C155.642 17.633 155.534 18.0873 155.327 18.465L155.854 18.7526ZM156.242 17.0919C156.242 16.459 156.118 15.8999 155.852 15.4278L155.329 15.7221C155.533 16.0843 155.642 16.5365 155.642 17.0919H156.242ZM155.856 15.4345C155.611 14.9721 155.273 14.6077 154.84 14.3501L154.533 14.8657C154.865 15.0632 155.128 15.3435 155.325 15.7154L155.856 15.4345ZM154.84 14.3503C154.41 14.0935 153.932 13.9666 153.413 13.9666V14.5666C153.83 14.5666 154.201 14.6672 154.533 14.8655L154.84 14.3503ZM153.413 13.9666C152.884 13.9666 152.4 14.0928 151.968 14.3501L152.275 14.8657C152.607 14.6679 152.983 14.5666 153.413 14.5666V13.9666ZM151.967 14.3503C151.538 14.6069 151.195 14.9691 150.937 15.4281L151.461 15.7218C151.671 15.3465 151.943 15.064 152.275 14.8655L151.967 14.3503ZM150.934 15.4342C150.684 15.9045 150.567 16.4612 150.567 17.0919H151.167C151.167 16.5343 151.271 16.0797 151.464 15.7157L150.934 15.4342ZM150.567 17.0919C150.567 17.7114 150.685 18.2661 150.932 18.7463L151.466 18.4713C151.27 18.0919 151.167 17.6352 151.167 17.0919H150.567ZM150.937 18.7557C151.195 19.2146 151.538 19.5768 151.967 19.8334L152.275 19.3183C151.943 19.1198 151.671 18.8373 151.461 18.4619L150.937 18.7557ZM151.968 19.8337C152.4 20.0909 152.884 20.2172 153.413 20.2172V19.6172C152.983 19.6172 152.607 19.5158 152.275 19.318L151.968 19.8337ZM156.315 22.1926V20.1067H155.715V22.1926H156.315ZM156.315 20.1122L156.37 17.0784L155.77 17.0674L155.715 20.1013L156.315 20.1122ZM156.37 17.0546L156.186 14.0398L155.587 14.0763L155.771 17.0912L156.37 17.0546ZM156.186 14.0581V8.12305H155.586V14.0581H156.186ZM155.886 8.42305H158.765V7.82305H155.886V8.42305ZM158.465 8.12305V22.1926H159.065V8.12305H158.465ZM158.765 21.8926H156.015V22.4926H158.765V21.8926Z" fill="white" mask="url(#path-1-outside-1_10222_11503)"/>
<path d="M6.92418 14.3439H2.22332C2.50347 12.8738 3.72448 11.4528 5.76949 10.3269L5.7695 10.3269C6.30981 10.0294 6.90069 9.757 7.53529 9.51414C7.18056 11.013 6.96782 12.6412 6.92418 14.3439ZM5.7695 19.6731L5.69929 19.8006L5.76949 19.6731C3.72448 18.5471 2.50347 17.1262 2.22332 15.6561H6.92418C6.96782 17.3588 7.18056 18.987 7.53529 20.4859C6.90069 20.243 6.3098 19.9706 5.7695 19.6731ZM5.13761 20.8227L5.20995 20.6913L5.13761 20.8227C5.98534 21.2895 6.9351 21.6947 7.96466 22.0277C8.29735 23.0584 8.70204 24.0091 9.16836 24.8577C9.64378 25.7231 10.1922 26.4962 10.8032 27.1399C7.08482 25.8565 4.14035 22.909 2.85826 19.1864C3.5012 19.798 4.27338 20.3469 5.13761 20.8227ZM10.3171 24.2256L10.1905 24.2951L10.3171 24.2256C10.0199 23.6847 9.74772 23.093 9.50511 22.4575C11.0023 22.8127 12.6287 23.0256 14.3295 23.0693V27.7755C12.8613 27.495 11.4419 26.2727 10.3171 24.2256ZM24.8324 20.8227L24.7601 20.6913L24.8324 20.8227C25.6966 20.3469 26.4688 19.7981 27.1117 19.1865C25.8296 22.909 22.8852 25.8565 19.1668 27.1399C19.7779 26.4962 20.3263 25.7231 20.8017 24.8577C21.268 24.0091 21.6727 23.0584 22.0054 22.0277C23.035 21.6947 23.9846 21.2895 24.8324 20.8227ZM19.6529 24.2256L19.6529 24.2256C18.5283 26.2727 17.1088 27.495 15.6405 27.7755V23.0693C17.3414 23.0256 18.9678 22.8127 20.4649 22.4575C20.2222 23.093 19.9501 23.6847 19.6529 24.2256ZM24.2006 19.6731L24.265 19.7902L24.2006 19.6731C23.6603 19.9706 23.0693 20.2429 22.4347 20.4858C22.7895 18.987 23.0022 17.3588 23.0459 15.6561H27.7467C27.4666 17.1262 26.2455 18.5471 24.2006 19.6731ZM24.2006 10.3269L24.2665 10.2072L24.2006 10.3269C26.2455 11.4528 27.4666 12.8738 27.7467 14.3439H23.0459C23.0022 12.6412 22.7895 11.013 22.4347 9.51414C23.0693 9.757 23.6603 10.0294 24.2006 10.3269ZM19.1668 2.86005C22.8852 4.14345 25.8296 7.09098 27.1117 10.8135C26.4688 10.2019 25.6966 9.65311 24.8324 9.17732C23.9846 8.71055 23.035 8.30534 22.0054 7.97236C21.6727 6.94167 21.268 5.99088 20.8017 5.14223C20.3263 4.2769 19.7779 3.50376 19.1668 2.86005ZM29.12 15C29.12 7.18533 22.7917 0.85 14.985 0.85C7.17833 0.85 0.85 7.18533 0.85 15C0.85 22.8147 7.17833 29.15 14.985 29.15C22.7917 29.15 29.12 22.8147 29.12 15ZM10.3171 5.77441C11.4419 3.72724 12.8613 2.50502 14.3295 2.22451V6.93069C12.6287 6.97438 11.0023 7.18732 9.50511 7.54248C9.74772 6.90703 10.0199 6.3154 10.3171 5.77441ZM9.16836 5.14222C8.70205 5.99088 8.29736 6.94168 7.96466 7.97236C6.9351 8.30534 5.98533 8.71055 5.13761 9.17732C4.27339 9.65313 3.50121 10.2019 2.85826 10.8135C4.14036 7.091 7.08483 4.14345 10.8032 2.86005C10.1922 3.50376 9.64378 4.2769 9.16836 5.14222ZM10.2367 14.3439H8.23565C8.28745 12.426 8.56492 10.6244 9.01609 9.02452C10.6142 8.57288 12.4138 8.29506 14.3295 8.24317V10.2472C13.5919 12.1159 12.1034 13.6059 10.2367 14.3439ZM14.3295 21.7569C12.4138 21.705 10.6142 21.4271 9.01609 20.9755C8.56492 19.3756 8.28745 17.574 8.23565 15.6561H10.2367C12.1034 16.3941 13.592 17.8841 14.3295 19.7528V21.7569ZM19.7339 15.6561H21.7345C21.6827 17.574 21.405 19.3756 20.954 20.9755C19.3558 21.4271 17.5563 21.705 15.6405 21.7569V19.7544C16.3778 17.8849 17.8666 16.3943 19.7339 15.6561ZM15.6405 8.24317C17.5563 8.29505 19.3558 8.57288 20.954 9.02452C21.405 10.6244 21.6827 12.426 21.7345 14.3439H19.7339C17.8666 13.6057 16.3778 12.1151 15.6405 10.2456V8.24317ZM15.6405 6.93069V2.22451C17.1088 2.50502 18.5283 3.72723 19.6529 5.77441L19.7844 5.70218L19.6529 5.77441C19.9501 6.31539 20.2222 6.90702 20.4649 7.54247C18.9678 7.18732 17.3414 6.97438 15.6405 6.93069Z" fill="#0B3B2D" stroke="white" stroke-width="0.3"/>
</svg>
